<svg xmlns="http://www.w3.org/2000/svg" width="52" height="52" viewBox="0 0 52 52"><defs><style>.a{fill:none;}.b{fill:#ccc;opacity:0.5;}.c{fill:#222;}</style></defs><g transform="translate(-16 -284)"><rect class="a" width="52" height="52" transform="translate(16 284)"/><path class="b" d="M550.342-694.188l-.285-.974,2.115-1.093.594-.951.713-.285.214.38.261.214v-.261l1.046.38.57-1.141v-.428l.333-.57v-.618l.618-.4v-1.426l.4.214.4-.214h.38l.19.19.285-.547.261-.713.119-.143v-.523h1l.19.285,1.426.4.547.451v.38l.737.024v.523l.285.428h.4l.665.475.261.024.428.19v.166l.475.261.451.642.309.2.309.654v.57l-.38.523.1.38.618-.642.547-.024.143.333.261-.119.238.784.689.523.475.713.5-.119.642.238h.356l.261-.475.333.143.166.309.38-.214v.57l.333.19v.428l.4.618v.238l.261.333h.428v-.57l.475-.475.689-.071.356-.309.309-.452.475.665,1.164.19.642.452.38-.5.9.5v1l-.309-.57-.333.57-.689.261-.309.238v.38l-.238.475s-.546.285-.57.428a4.457,4.457,0,0,0,.214.856l-.689.309.024.357h-1.022l-.19.451.285.4-.047.214-.285.214-.024.523-.214,1,.047.285-.238.642v3.4l-.547.261-.428-.261-.451.261h-.333l-.357-.143v.618l-.642.713.357,1.188-.166,1.141.024,1.4.428.285h.784l.618.475v.689l.4.594.856.547h1.973l.143.547v.713l-.333.357.19.238-.238.76.547.428-.119.665h-.76l-.5.5-.048.333-.451.475.285,1.046-.166,1.022.285.309-.309.5-.309.238-.9-.119-.618.642h-.19l.19.855-.309.4-.048.547-.166.38-.238.38-.5.19L570.9-663.7l.428,1.473.048.475-1.069.879-.737.927-.927,1.164-.808.38h-.475l-3.232-.523-.808-.238-.357.19,1.521.4-4.135,5.466-1.331-.666-5.371-3.992-.832-1.331-.238-1.426-.1-.4.261-.214v-3.28l-1.782.238-1.117-.713.119-1.331.214.024.143.5,1.022.689.547-.855-.665-.4.238-.475,1.022.523.071-.357.238-.1.594-1.236-1-.737.428-.57.951.4.19-.38-1.022-.618.4-1.093-.666.024-1.236,2.685-.951.024.024-1.925.428-.119v-.19l-.547-.665.951.143.4-.333-.143-.665-.642.356-.261-.309.071-.737,1.164-.071-.071.642,1.259-.309,1.664.927-.071-.309-.57-.4h.618l.071-.166-1.307-.737-.071-.38,1.141.57-.1-.285-.856-.523-.523-1.426-.665.333.333,1.259-.57.285-.808.048-.333-.5-.357-.048.048-.57.832-1.5.1-.38.689-.261.1-.309.143.1.333-.19.143.1.285-.261.547-.309.57-.214h.356l.547.309-.238-.475,1.283-.428.261.143.4-.143-.143-.333-.143-.238v-1.046l-1.212.119.024.5-.475.618-.57.119-.166.261h-2.376l-.1-2.448.119-.38-.309-.309.071-2.757-.19-.594-.428-.19.048-1.141-.333-1.283.1-.357.642-.333.594-.4-.238-.428-.832-.618h-.642l-.047-.689-.4.166-.57-.737.285-.594-1.069-1.782.951-.523.119-.547Z" transform="translate(-521.75 988.1)"/><g transform="translate(-2184.156 -2934.609)"><path class="c" d="M2216.76,3245.751a6.305,6.305,0,0,1-1.631-.2,3.493,3.493,0,0,1-1.26-.6,2.788,2.788,0,0,1-.819-1.021,3.386,3.386,0,0,1-.294-1.47v-.939a3.427,3.427,0,0,1,.294-1.476,2.767,2.767,0,0,1,.819-1.029,3.513,3.513,0,0,1,1.26-.6,6.917,6.917,0,0,1,3.262,0,3.51,3.51,0,0,1,1.26.6,2.765,2.765,0,0,1,.819,1.029,3.427,3.427,0,0,1,.294,1.476v.939a3.386,3.386,0,0,1-.294,1.47,2.786,2.786,0,0,1-.819,1.021,3.49,3.49,0,0,1-1.26.6A6.312,6.312,0,0,1,2216.76,3245.751Zm-1.232,5.418a3.571,3.571,0,0,1-.973-.112,1.221,1.221,0,0,1-.924-.981,4.245,4.245,0,0,1-.091-.952V3247.7a1.258,1.258,0,0,1,.427-1.05,1.6,1.6,0,0,1,1.015-.335,1.513,1.513,0,0,1,.994.335,1.286,1.286,0,0,1,.406,1.05v.952c0,.16.023.257.07.294a.557.557,0,0,0,.308.056h7.6a1.109,1.109,0,0,1,.91.329,1.2,1.2,0,0,1-.007,1.513,1.112,1.112,0,0,1-.9.329Zm1.232-7.477a1.465,1.465,0,0,0,.91-.265,1.006,1.006,0,0,0,.35-.855v-1.162a1.022,1.022,0,0,0-.35-.86,1.647,1.647,0,0,0-1.82,0,1.02,1.02,0,0,0-.35.86v1.162a1,1,0,0,0,.35.855A1.465,1.465,0,0,0,2216.76,3243.692Zm5.586-4.284a1.26,1.26,0,0,1,.427-1.036,1.52,1.52,0,0,1,.987-.35,1.587,1.587,0,0,1,.525.091,1.348,1.348,0,0,1,.455.267,1.3,1.3,0,0,1,.315.433,1.419,1.419,0,0,1,.119.595v8.513h-2.828Z"/><path class="c" d="M2232.006,3241.551v.252c0,.131-.005.252-.014.363s-.023.225-.042.337a3.1,3.1,0,0,1,2.3.924,3.921,3.921,0,0,1,.721,2.687h-2.59a1.869,1.869,0,0,0-.287-1.246,1.067,1.067,0,0,0-.861-.447,3.86,3.86,0,0,1-1.54,1.315,4.77,4.77,0,0,1-1.918.462,1.315,1.315,0,0,1-.875-.265.912.912,0,0,1-.357-.756,1.076,1.076,0,0,1,.245-.756,1.116,1.116,0,0,1,.665-.336,2.263,2.263,0,0,0,1.435-.757,2.309,2.309,0,0,0,.5-1.525v-.252h-1.75a.935.935,0,0,1-.441-.1.925.925,0,0,1-.315-.259,1.268,1.268,0,0,1-.2-.349,1.116,1.116,0,0,1-.07-.386,1.464,1.464,0,0,1,.056-.385,1.1,1.1,0,0,1,.182-.371.95.95,0,0,1,.784-.378h1.708v-.084a1.161,1.161,0,0,1,.35-.93,1.5,1.5,0,0,1,1.008-.3,1.528,1.528,0,0,1,1.015.3,1.148,1.148,0,0,1,.357.93v.084h1.764a.952.952,0,0,1,.462.106.962.962,0,0,1,.322.272,1.1,1.1,0,0,1,.182.371,1.464,1.464,0,0,1,.056.385,1.094,1.094,0,0,1-.07.386,1.294,1.294,0,0,1-.2.349.925.925,0,0,1-.315.259.935.935,0,0,1-.441.1Zm-2.478,9.618a3.571,3.571,0,0,1-.973-.112,1.221,1.221,0,0,1-.924-.981,4.245,4.245,0,0,1-.091-.952v-1.035a1.177,1.177,0,0,1,.427-1.023,1.692,1.692,0,0,1,1.015-.307,1.6,1.6,0,0,1,.994.307,1.2,1.2,0,0,1,.406,1.023v.559c0,.16.023.257.07.294a.557.557,0,0,0,.308.056h7.6a1.109,1.109,0,0,1,.91.329,1.2,1.2,0,0,1-.007,1.513,1.112,1.112,0,0,1-.9.329Zm6.86-7.547h-.8a1.011,1.011,0,0,1-.875-.336,1.27,1.27,0,0,1-.245-.769,1.459,1.459,0,0,1,.056-.407,1.024,1.024,0,0,1,.182-.356.83.83,0,0,1,.343-.252,1.369,1.369,0,0,1,.539-.092h.8v-2.029a1.238,1.238,0,0,1,.42-1.016,1.486,1.486,0,0,1,.966-.343,1.53,1.53,0,0,1,.518.091,1.456,1.456,0,0,1,.448.259,1.237,1.237,0,0,1,.315.421,1.364,1.364,0,0,1,.119.588v8.54h-2.786Z"/></g></g></svg>