<svg xmlns="http://www.w3.org/2000/svg" width="52" height="52" viewBox="0 0 52 52"><defs><style>.a{fill:none;}.b{fill:#ffb900;opacity:0.5;}.c{fill:#222;}</style></defs><g transform="translate(-292 -284)"><rect class="a" width="52" height="52" transform="translate(292 284)"/><path class="b" d="M2965.656-667.79l1.565-.74.963-1.737.619.189,1.376.757.069.292-3.044,2.408-.258.447-.017.413.516,1.187.757.413.533.791.4.172-.4.636.189.705.963.688.138-.4-.1-.361.327-.155.877.912v.344l.671.585h.705l.155-.4.344-.034.1.327.808-.31.224.344-.482.361.293.482-.551.292h-.653l-.378-.43.137.963.189.361-.258.31v.378l.6.413.929,1.273.052.688-.31.464.155.172.551-.894v-.688l-.155-.912.292-.4,1.29-1.238,1.771-1.634.5.378.223.017.138.533.516.5.172-.361.361-.034.292-.344.774-.774,2.012-3.526.241.086v.636l1.187.224,2.271.069.361.1.654-.619.516-.052.1.155-.292.344.791.327v.533l.825.155v.206l.774.361-.137-1-.378-.568v-.378l1.152.034.344.189.224.017v-.275l1.153-.172.43-.206.516.034.464.4.361-.344.327.292.292.378-.121.31.31.585-.327,3.113-1.1,1.118.31.808-.224.361.189.533-.275.6.327,1.015-.413.258.034.258-.224.292.448.344.068,1.135-.292.206-.568-.4-.671.275-.275.447.172.6-.568.344.258.361-.172.74.086.275-.5.138-.344.894.241,1.823-.017.533.43.413-.017.4-.224,1.135-.017.5-.5.688.137.533.98.636.052.808-.963.5-.464-.292-1.118.138-.619-.344-.327.1-.017.55-.138.4-.1.585-.843.1-1.049.688h-.533l-.791.258-.843.636-1.083-.086.344-.327v-.31l-.533-.258-.069-.258-1-.6-.688-.533-.224.069-.825-.619.1-.447-.533-.1-.516-.774.155-.31-.825-.275-.533-.585-.206-.74.275-.378-.361-.155-.705.241.086.206-.275.826.447.275.069.464-.688.086-.619.74.034.705-.31.155-.052.55-1.032,1.29-.241.757v.671h-.6l.31.43.636.894.12.843-.636.172-.413-.757-.533-.138-.275.138-.6-.31.327-.481.034-.671h-.636l-.4.654-.189.292.224.241.017.516-.275.1-.5-.327-.568.55.12.189-.052.688.344-.1.808.636.43-.258.43.843-.482.189-.017.533-.241.31.138.206v.31l.619.292.533.55.533-.344.568.344-.74.069-.31.43-.258.223-.206-.086-.207-.568-.344.413-.636-.636-.361-.034-.207.241.413.155.464,1.015.43-.206.378.206-.017.241.241.138.086.585.5.275-.137.757.447.671-.481.1-.086.344.31.138-.1.344-.585.189.258.654-.12.447.258.206.378-.413.378.5.654-.568.206.206-.258.533-.034.224-.757-.155-.258.155.189.223.791.12-.12.258-.619.224-.12.568-.481.224.223.275.585-.189.344.189.258-.206.12.43.413.378.052.327.292.482-.963.155-.619.292-.275-.155.293-.533-.258-.447-.413-.224-.31.241-.138.31-.533-.034.224-.516-.344-.464-.361-.189-.241-.413.206-.155-.808-.482-.069-.224-.895-.327-.533.172-.584-.275-.671-.6-.481-.017-.069-.258-.585-.206-.275.1-.826-.275-.929.585-.275.224.327.757-.069.654.86,1.514.017.258-.275.069-.533-.791-.464-.189v-.826l-.585-.774-.12-.688-.688-.585v-.585l-.533-.361-.31-.533-.533.5-.189-.757-.207-.155v-.43l-.327-.172.258-.241.292.1.138-.224-.292-.413.464-.361h.344l.189.206.241-.275.034-.585.206-.017.017-.344-.705-.344h-.361l.052.344-.877-.894.344-.138-.344-.464.344-.378-.344-.275.344-.722.516-.241.516.034-.172-.4h-.361l.034-.224.258-.172.034-.481.688.481.671-.017.275-.31.688.155,1.273,1.41-.327-.98-.482-.5.292-.705-.654.189-.31-.1-.155-.206h-.31l-.309.224-.034.378-.4.034-.189-.585-.207-.172.292-.447-.223-.327-.6.172-.034.464.327.206-.447.413-.258-.172-.155.378-.189-.052v-.43l.344-.31-.138-.413.121-.482-.017-.292.138-.413-.189-.155-.533.516v.172l-.447.017v-.378l.568-.568-.172-.482.052-.155s.533-.017.568.086.327-.43.327-.43l.4-.086.55-.361.034-.275-.1-.447-.292-.189-.017-.619.482.224.344.568.567-.31.172-.034.464-.086.791-.654v-.258l-.378-.206.172-.447.757-.069.034-.5.12-.224-.292-.327.533-.241.137.344.31-.12.516.413.258-.877-.275-.533-.533-.086-.619.172.5-.568.447-.1-.189-.911-.258-.292-.172-.791-.722-.808-.464.774.086.344-.224.378-.74.086-.224-.241.327-.413-.12-.344.344-.688-.43-.413-.206-.688-.448-.224-.292.275-.189-.275-.809.155-.155-.4.636-.224-.052-.224.447.206.378-.155.31.31.155-.034.327-.568-.069-.43-.292.258-.516-.43.12-.241.035-.533-.636-.757-.447-.017-.378-.482-.1-.671.344-.447-.206-.4-.052-.224-.74-.585-.361.241-.327-.327-.43-.1-.533.241.172.464-.447.052-.447-.224v.31l-.619-.43-.43.138-.327-.275.31-.172-.636-.4v.189l-.378.275-.172-.206.275-.533-.1-.43.224.017-.1-.378-.137-.4.516-.86.482-.292.378-.671.739-.378.19-.894.516-.378v-1.1l.413-.516-.292-.189.034-.224,1.084-1.049-.172-.464.138-1.084-1.307-.705-.035-.378-.963-1.479.327-.757.619-.55.43-.086.688-.671.43.31.224-.189.327.241.894-.206.327.1.206.413.895.12.654-.275.189.292.275-.275Z" transform="translate(-2655.833 955.267)"/><g transform="translate(-2072.879 -2934.685)"><path class="c" d="M2387.083,3251.231V3247.9h-2a3.241,3.241,0,0,1-1.211,2.3,4.109,4.109,0,0,1-2.541.763,4.954,4.954,0,0,1-1.547-.231,3.274,3.274,0,0,1-1.218-.7,3.2,3.2,0,0,1-.8-1.176,4.332,4.332,0,0,1-.287-1.645v-5.152a4.34,4.34,0,0,1,.287-1.645,3.206,3.206,0,0,1,.8-1.176,3.291,3.291,0,0,1,1.218-.7,4.954,4.954,0,0,1,1.547-.231,4.189,4.189,0,0,1,2.415.672,3.123,3.123,0,0,1,1.281,2h2.058v-1.512a1.292,1.292,0,0,1,.406-1.036,1.433,1.433,0,0,1,.966-.35,1.448,1.448,0,0,1,.966.357,1.276,1.276,0,0,1,.42,1.029v11.76Zm-6.9-3.92a1.424,1.424,0,0,0,.329,1.05,1.2,1.2,0,0,0,1.638,0,1.424,1.424,0,0,0,.329-1.05v-5.348a1.429,1.429,0,0,0-.329-1.043,1.184,1.184,0,0,0-1.638,0,1.429,1.429,0,0,0-.329,1.043Zm4.956-1.736h1.946v-2.268h-1.946Z"/><path class="c" d="M2399.095,3248.3v3h-2.856v-3h-3.948a1.078,1.078,0,0,1-.9-.35,1.244,1.244,0,0,1-.273-.784,1.389,1.389,0,0,1,.063-.413,1.064,1.064,0,0,1,.2-.371.983.983,0,0,1,.364-.266,1.362,1.362,0,0,1,.546-.1h10.752a1.364,1.364,0,0,1,.546.1.984.984,0,0,1,.364.266,1.08,1.08,0,0,1,.2.371,1.389,1.389,0,0,1,.063.413,1.244,1.244,0,0,1-.273.784,1.078,1.078,0,0,1-.9.35Zm-.056-8.68c-.01.149-.023.292-.042.427s-.042.273-.07.413a5.569,5.569,0,0,1,1.757.315,4.657,4.657,0,0,1,1.554.91,4.918,4.918,0,0,1,1.155,1.547,5.842,5.842,0,0,1,.546,2.212h-2.828a3.832,3.832,0,0,0-.392-1.162,3.007,3.007,0,0,0-.7-.875,2.9,2.9,0,0,0-.952-.539,3.3,3.3,0,0,0-1.148-.168,7.239,7.239,0,0,1-2.387,2.03,6.813,6.813,0,0,1-1.435.56,5.663,5.663,0,0,1-1.456.2,1.406,1.406,0,0,1-.889-.287,1.078,1.078,0,0,1-.413-.805,1.25,1.25,0,0,1,.231-.875,1.226,1.226,0,0,1,.8-.469,5.332,5.332,0,0,0,1.323-.427,4.663,4.663,0,0,0,1.148-.763,4.258,4.258,0,0,0,.861-1.085,3.992,3.992,0,0,0,.462-1.379,1.391,1.391,0,0,1,.539-.987,1.527,1.527,0,0,1,1.029-.273,1.471,1.471,0,0,1,.973.434A1.378,1.378,0,0,1,2399.039,3239.625Z"/></g></g></svg>