<svg xmlns="http://www.w3.org/2000/svg" width="52" height="52" viewBox="0 0 52 52"><defs><style>.a{fill:none;}.b{fill:#ccc;opacity:0.5;}.c{fill:#222;}</style></defs><g transform="translate(-200 -284)"><rect class="a" width="52" height="52" transform="translate(200 284)"/><path class="b" d="M2153.714-647.492l-1.238-1.316-1.132.5,1.185-.922.843.764.5-.342-.843-.816,2.844-3.186.132-.421-.237-.184.5-1,.237.316,2.238-3.475,2.765-3.528.658.421.369-.421.632-.737.5-.184.737-2.528-.184-1.4,2.291-.237.316-.316,1.527-.184v-.237l1.185-.948.553-.922v-.395l.211.132.158-.132.132.211.605-.211.342.316h.263v-.316l.658-.474.132.237.448.421h1.29l1.027-.342.132-.632h2.185l.763-.29.421.237.132,1.5.342.211.158-.579.4-.29h.263l.527,1.159.632.843.29.105,1.027.474,1-.29.237.158.843.026.184.105.684-.237.79.421.158.474.658.5.527.948-.158.632.158.237v.29l-.263.342.263.395-.211.711.211.5-.527,2.027-.316.237.447,1.9.29-.026.105.263.5-.132.21.211.632.395h1.659l1.448.553.29-.211,1.711.474.527.395.369.606-.131.922.131.105v2.291l1.106-.026.21,1.632.343-.395.29-.026v1.106l-.158.448-.263.079-.026,2.844-2.4-.421-1.606-.184-3.449.395-.711,1.079-1.053.474-4.687,2.659-.342-.211-.184-.026-.342.237-.105.29-.026.5h-.5l-.079-.869-.553.369-.711.053.053.658h-.684l-.474.369h-1.211l-1.185-.606-.632-.527-.921-.053-.158.132,1.738,2.264-2.4,1.58-2.37,1.053-.632-.79-.527.263-.184.869.132.211-.184.132-.29-.211-5.371,1.448-.421-.105.922-2.422.869-.316.632-.685-.605-.685-.869.9-1.053.658-1.158,1.922-1.422,1.422-.132-.553-3.028.29-.527-.105-.29.158-.658-.263-1.132-.237-.342-.369-.421-.816.1-.974-.158-.711.158-.237-.579-.869-.474-1.08-.369.263-2.212-1.79.211-.711-1.738-.737-.658-.053-.158.263-.922-.29.132-.342-.5-.026-.711-.632,2.5-2.791.369-.158,1.29,1.448.342-.132Z" transform="translate(-1946 962.267)"/><g transform="translate(-2112.215 -2934.781)"><path class="c" d="M2329.711,3244.119v-.826h-2.52a4.066,4.066,0,0,1-1.022-.1,1.224,1.224,0,0,1-.609-.343,1.279,1.279,0,0,1-.294-.644,5.647,5.647,0,0,1-.077-1.022v-.8a5.558,5.558,0,0,1,.077-1.008,1.333,1.333,0,0,1,.294-.651,1.162,1.162,0,0,1,.609-.343,4.317,4.317,0,0,1,1.022-.1h7.966a4.312,4.312,0,0,1,1.022.1,1.166,1.166,0,0,1,.609.343,1.344,1.344,0,0,1,.294.651,5.561,5.561,0,0,1,.077,1.008v2.912h-4.592v.826h3.99a1.091,1.091,0,0,1,.9.329,1.187,1.187,0,0,1,0,1.5,1.091,1.091,0,0,1-.9.329h-10.78a1.091,1.091,0,0,1-.9-.329,1.187,1.187,0,0,1,0-1.5,1.091,1.091,0,0,1,.9-.329Zm-3.374,5.012a1.2,1.2,0,0,1-.875-.294,1.026,1.026,0,0,1-.3-.77.982.982,0,0,1,.3-.756,1.237,1.237,0,0,1,.875-.28h8.792a4.059,4.059,0,0,1,1.022.1,1.232,1.232,0,0,1,.609.343,1.3,1.3,0,0,1,.294.651,5.683,5.683,0,0,1,.077,1.015v2.086h-2.8v-1.792a.272.272,0,0,0-.308-.308Zm1.652-8.218a.547.547,0,0,0,.063.3.321.321,0,0,0,.273.091h6.048v-.686a.469.469,0,0,0-.07-.287.339.339,0,0,0-.28-.091h-5.7c-.14,0-.231.03-.273.091a.513.513,0,0,0-.063.287Z"/><path class="c" d="M2341.065,3244.035v-1.2a1.379,1.379,0,0,1,.385-1.092,1.554,1.554,0,0,1,1.057-.336,1.488,1.488,0,0,1,1.036.343,1.4,1.4,0,0,1,.378,1.085v1.2h2.492v-1.2a1.378,1.378,0,0,1,.385-1.092,1.552,1.552,0,0,1,1.057-.336,1.488,1.488,0,0,1,1.036.343,1.4,1.4,0,0,1,.378,1.085v1.2h.952a1.073,1.073,0,0,1,.91.35,1.239,1.239,0,0,1,.266.77,1.216,1.216,0,0,1-.273.777,1.087,1.087,0,0,1-.9.343h-3.626v2.408h3.948a1.369,1.369,0,0,1,.546.1,1.029,1.029,0,0,1,.364.259,1,1,0,0,1,.2.364,1.384,1.384,0,0,1,.063.413,1.246,1.246,0,0,1-.273.784,1.078,1.078,0,0,1-.9.35h-10.752a1.078,1.078,0,0,1-.9-.35,1.246,1.246,0,0,1-.273-.784,1.384,1.384,0,0,1,.063-.413.991.991,0,0,1,.2-.364,1.028,1.028,0,0,1,.364-.259,1.367,1.367,0,0,1,.546-.1h3.948v-2.408h-3.626a1.087,1.087,0,0,1-.9-.343,1.216,1.216,0,0,1-.273-.777,1.239,1.239,0,0,1,.266-.77,1.071,1.071,0,0,1,.91-.35Zm8.988-5.488a1.281,1.281,0,0,1,.546.1,1.027,1.027,0,0,1,.567.651,1.432,1.432,0,0,1,0,.84,1.01,1.01,0,0,1-.21.378,1.115,1.115,0,0,1-.371.273,1.242,1.242,0,0,1-.532.1h-9.772a1.232,1.232,0,0,1-.539-.1,1.136,1.136,0,0,1-.364-.273,1.01,1.01,0,0,1-.21-.378,1.432,1.432,0,0,1,0-.84,1.051,1.051,0,0,1,.2-.378,1.034,1.034,0,0,1,.364-.273,1.276,1.276,0,0,1,.546-.1Z"/></g></g></svg>