<svg xmlns="http://www.w3.org/2000/svg" width="52" height="52" viewBox="0 0 52 52"><defs><style>.a{fill:none;}.b{fill:#ccc;opacity:0.5;}.c{fill:#222;}</style></defs><g transform="translate(-16 -428)"><rect class="a" width="52" height="52" transform="translate(16 428)"/><path class="b" d="M2687.312,2005.458l.18-.344h.115l.262-.18.3.41.426.213.639.623h.443l.262.279-.2.115v.2l.492.246v.508l-.115.393-.065-.23-.361.23-.033.131-.1.475h.344l-.1.3.426.9.771.967.557.262.131.164-.344.082.164.279,1.475,1.459,1.246,1.328v.508l-.279.344.9.951,1.312,1.393.344.3.967,1,1,1.279,1.934,1.934,1.328.557-.394.115-.082.443.59.672.574.541.344.443.607.344.361.508.836.59-.115.115.508.148v.312l.18.147v.426l.41.672.41.508,1.262,1.426.082.344.459.656.229.115.8.951.935.885h.295l.1.18h.2l.1.328.18.1.164.328h.2l.262.377-.1.2.262.164v.3l-.229.541.115.213-.016.312.131.311-.131.229v.262l-.23.229h-.328l-.394.82-.246.443.41,1.279.279.639h.328l.033.541h.557v.377h.312v.361l.115.3.934.967-.082.246-.312.41-.771.262h-.508l-.082.262.213.312.18.246v.311h-.164l-.262.885-.328.525.017.59-.1.213.016.164-.213.361.082.262-.1.59.115.426-.115.361-.066.492-.279.148a4.094,4.094,0,0,0-.443-.18c-.049,0-.2-.229-.2-.229l-.164.164-.738.1-.361.328-.344.688-.328.115-.2-.18-.508.033-.2-.246-.41-.049-.2-.2-.492.033-.541.607-.328.475-.885.147-.148-.147-.524.147.049-.41-.262-.131-.115-.279-.459-.328-.246-.82-.115.148v.295l-.377.508-.492.082-.082.147a2.332,2.332,0,0,0-.541-.213c-.049.033-.377.426-.377.426l-.689-.082v-.18l-.164-.344-.246-.017-.229-.2-.115-.328-.426-.049-.279-.18-.18.213-.148-.246.033-.361-.853-.147-.049-1.016-.1-.18.2-.393-.115-.492-.344-.049-.115-.393-.213-1.3-.065-.18h-.148c-.049,0-.246-.262-.246-.262l-.213.131-.147-.574-.508-.033-.541.459-.41-.1-.557,1.328-.148.115-.426.9v.508l-.312.639v.426l.279.361.016.344-.229.59-.049.8-.164.23-.2.115.147.508-.312.394.066.606-.1.1-.246.131-.2.115.131.229-.1.115-.1.3.115.115-.41.2-.623.262-.443-.115-.246.246-.59.344h-.131l-.869.557v-.459l-.164-.082-.082-.213-.393-.328v-.213l-.312-.016-.623-.492v-.443l-.115-.606.164-.131-.164-.229-.229.016-.246-.361v-.656l-1.164-.721-.492.18-.672-.131-.557.328-.934-.656h-.574l-.229.147-.312-.3-.426.18-.459.41-.377.492v.131l-.295.328-.082.443-.312.262-.147-.246-1.164-.115-.1-.393-.492-.18-.41-.426-.623-1.426-.492-.541v-.869l-.426-.377v-.393l.2-.475-.049-.656.18-.262-.033-.147.18-1.393.246.246.229-.066.246.2.312-.016.328-.229.41.2.033.279.344.131h.557l-.033-.279.377-.229.2-1.262.574-.852.459.049.508.147.164-.147v-.328l.115-.2-.049-.508-.147-.3.049-1.016-.246-.393-.279-.246-.18-.344.1-.361.18-.082-.016-.312.246-.361-.18-.279.033-.344.246-.426.147-.2.705-.229.033-.41.2-.115.082-.394.492-.131.033-.246,1.18-.377-.147-.443-.016-.312.065-.2-.246-.213.016-.459-.164-.164-.049-.787-.279-.131-.213-.656.049-.9-.2-.459-.426-.18-.082-.59.115-.262-.394-.393.1-.311-.147-.279.065-1.541h-.459l-.7-.771-.771-.262-.147-.18-.049-.475-.279-.082-.476-.574-.033-.213-.377-.131.049-.164.1-.049-.3-.377-.295.033-.164-.3-.541-.082-.082.18-.229-.164-.262.2-.426-.361-.77-.082-.312.311-.082-.049-.394.393-.623-.377-.279.1-.393-.279-.229.246-.131-.246-.147-.033-.475-.475-.394-.016-.082-.213-.164-.016-.229-.508-.361.229-.312.967-.328.016-.279.41-.18-.18-.3.2-.524-.033v-.164l-.394.492-.2-.066-.131-.2-.393.049-.344-.672.131-.639.131-.18-.1-.771-.164-.2.082-.426.147-.115-.082-.787.1-.311-.246-.262.115-.475-.2-.049-.574-.951-.689-.262-.344-.721v-.754l.131-.18-.131-.311.18-.9.262-.246-.082-.393a4.118,4.118,0,0,0,.213-.459c0-.049.017-.639.017-.639l.147-.262-.164-.3.344-.541.558-.016.426-.59,1.541-.115.361-.016.115-.262.1-.066-.033-.426.147-.082-.131-.18.394-.459.295-.229.476-.18.262-.426.016-.115.508-.311.426.492.524.1.3-.18.328-.016.426.164.131.18.016.393.229.033.672-.492.8-.066.476-.361h.262l.279-.377.656-.361.623-.016.082.23.393-.18v-.164l.492-.443.312.082.1.164.426-.115.557.344.312-.246v-.229l.787-.016.312-.738h.279l.344-.3.229-.066.229.3.984.016.344-.164.312.131.18-.361.312.016.229-.279.41.328.41.1.59-.2.312.016Z" transform="translate(-2648 -1575.934)"/><g transform="translate(-2611.36 -2790.685)"><path class="c" d="M2641.2,3243.111a9.1,9.1,0,0,0,1.456-.056,3.923,3.923,0,0,0,1.169-.315,1.958,1.958,0,0,0,.784-.63,1.648,1.648,0,0,0,.287-.987v-.14c0-.206-.108-.308-.322-.308h-3.22a1.352,1.352,0,0,1-.525-.091,1.019,1.019,0,0,1-.357-.245.948.948,0,0,1-.2-.35,1.335,1.335,0,0,1,0-.812.958.958,0,0,1,.2-.35,1.019,1.019,0,0,1,.357-.245,1.352,1.352,0,0,1,.525-.091h4.256a2.165,2.165,0,0,1,1.6.469,1.986,1.986,0,0,1,.448,1.421v.672a3.868,3.868,0,0,1-1.988,3.549,6.073,6.073,0,0,1-2.107.714,9.976,9.976,0,0,1-2.513.063,1.189,1.189,0,0,1-.8-.392,1.154,1.154,0,0,1-.28-.91.971.971,0,0,1,.385-.742A1.269,1.269,0,0,1,2641.2,3243.111Zm-.728,5.418a3.1,3.1,0,0,1,.182-1.064,2.431,2.431,0,0,1,.539-.875,2.523,2.523,0,0,1,.9-.588,3.43,3.43,0,0,1,1.274-.217h5.922a3.493,3.493,0,0,1,1.26.21,2.528,2.528,0,0,1,.91.581,2.4,2.4,0,0,1,.546.875,3.281,3.281,0,0,1,0,2.156,2.4,2.4,0,0,1-.546.875,2.525,2.525,0,0,1-.91.581,3.5,3.5,0,0,1-1.26.21h-5.922a3.45,3.45,0,0,1-1.274-.217,2.535,2.535,0,0,1-.9-.588,2.443,2.443,0,0,1-.539-.868A3.077,3.077,0,0,1,2640.469,3248.529Zm2.842,0a.954.954,0,0,0,.168.525.694.694,0,0,0,.63.259h4.438a.694.694,0,0,0,.63-.259.9.9,0,0,0,0-1.05.694.694,0,0,0-.63-.259h-4.438a.694.694,0,0,0-.63.259A.958.958,0,0,0,2643.311,3248.529Zm5.88-9.058a1.279,1.279,0,0,1,.413-1.036,1.506,1.506,0,0,1,1.939.007,1.276,1.276,0,0,1,.42,1.029v1.148h.434a1.121,1.121,0,0,1,.532.112,1,1,0,0,1,.336.28,1.094,1.094,0,0,1,.182.385,1.659,1.659,0,0,1,0,.854,1.173,1.173,0,0,1-.182.392.894.894,0,0,1-.343.28,1.2,1.2,0,0,1-.525.1h-.434v2.422h-2.772Z"/><path class="c" d="M2665.711,3244.245a.919.919,0,0,1,.784.3,1.087,1.087,0,0,1,.224.665,1.058,1.058,0,0,1-.231.672.931.931,0,0,1-.777.294h-11.088a.931.931,0,0,1-.777-.294,1.058,1.058,0,0,1-.231-.672,1.086,1.086,0,0,1,.224-.665.918.918,0,0,1,.784-.3Zm-1.932,2.464a3.475,3.475,0,0,1,1.141.168,2.107,2.107,0,0,1,.8.476,1.883,1.883,0,0,1,.462.721,2.934,2.934,0,0,1,0,1.834,1.865,1.865,0,0,1-.462.721,2.119,2.119,0,0,1-.8.476,3.475,3.475,0,0,1-1.141.168h-7.224a3.475,3.475,0,0,1-1.141-.168,2.119,2.119,0,0,1-.8-.476,1.865,1.865,0,0,1-.462-.721,2.934,2.934,0,0,1,0-1.834,1.883,1.883,0,0,1,.462-.721,2.107,2.107,0,0,1,.8-.476,3.475,3.475,0,0,1,1.141-.168Zm-7.84-2.968a1.716,1.716,0,0,1-1.351-.511,1.792,1.792,0,0,1-.455-1.239v-.084a1.579,1.579,0,0,1,.448-1.19,1.885,1.885,0,0,1,1.358-.434h7.182v-.238a.22.22,0,0,0-.056-.175.326.326,0,0,0-.21-.049h-7.868a.68.68,0,0,1-.581-.252.872.872,0,0,1-.189-.532.948.948,0,0,1,.175-.539.664.664,0,0,1,.595-.259h9.45a1.766,1.766,0,0,1,1.232.329,1.3,1.3,0,0,1,.336.973v2.156h-8.61c-.177,0-.266.074-.266.224s.089.238.266.238h8.162a.65.65,0,0,1,.581.259.969.969,0,0,1,.175.553.934.934,0,0,1-.168.511.646.646,0,0,1-.588.259Zm6.958,5.684a.674.674,0,0,0,.469-.119.476.476,0,0,0,0-.63.679.679,0,0,0-.469-.119h-5.46a.675.675,0,0,0-.469.119.477.477,0,0,0,0,.63.67.67,0,0,0,.469.119Z"/></g></g></svg>