<svg xmlns="http://www.w3.org/2000/svg" width="40" height="41" viewBox="0 0 40 41"><defs><style>.a,.d{fill:none;}.b{fill:#222;font-size:9px;font-family:NanumBarunGothic;}.c{fill:#ffb900;}.d{stroke:#222;stroke-linecap:round;stroke-linejoin:round;}</style></defs><rect class="a" width="40" height="40"/><text class="b" transform="translate(20 38)"><tspan x="-16.056" y="0">매물정보</tspan></text><circle class="c" cx="8" cy="8" r="8" transform="translate(18 6)"/><g transform="translate(6.629 7.847)"><path class="d" d="M3197.631-2812.738v-2.7h4.735v2.7" transform="translate(-3188.75 2814.962)"/><path class="d" d="M3185.348-2803.612v-3.665h12.993l2.475,3.665" transform="translate(-3179.941 2809.5)"/><path class="d" d="M3171.648-2786.135l-2.284-8.186h26.747l-2.951,8.186" transform="translate(-3168.478 2800.209)"/><path class="d" d="M3193.864-2772.081a2.589,2.589,0,0,1-2.764,2.368,2.588,2.588,0,0,1-2.763-2.368,2.588,2.588,0,0,1-2.763,2.368,2.589,2.589,0,0,1-2.763-2.368,2.589,2.589,0,0,1-2.763,2.368,2.589,2.589,0,0,1-2.763-2.368,2.588,2.588,0,0,1-2.763,2.368,2.589,2.589,0,0,1-2.764-2.368,2.588,2.588,0,0,1-2.763,2.368,2.589,2.589,0,0,1-2.763-2.368" transform="translate(-3166.231 2784.26)"/></g></svg>