<svg xmlns="http://www.w3.org/2000/svg" width="52" height="52" viewBox="0 0 52 52"><defs><style>.a{fill:none;}.b{fill:#ffb900;opacity:0.5;}.c{fill:#222;}</style></defs><g transform="translate(-292 -428)"><rect class="a" width="52" height="52" transform="translate(292 428)"/><path class="b" d="M4689.827-1190.775l.212-.578.238-.824.255-.2.34-.264.357-.374.5-.739.519-.663.314-.731.188-.263.272-.2.255-.179.229-.153.2-.2.315-.161.374-.119.739-.128.493-.034.791.06.552.076.663.034.484-.025.519-.145h.893l.935.06.7.034.875.085h.519l.459-.128.348-.153.3-.23.383-.272.382-.408.29-.383.17-.391.084-.315v-.348l-.042-.332-.025-.229.068-.187.238-.187.2-.178.349.586.459,1.037.221.654.562,1.173.357.688.612,1.589.416.561.1.306.816,1.207,1.241,1.828,1.368,1.5.094.748.382.332.119.374.1.5.442.493.4.765.323.408.17.536.374.4.188.4.229,1.045.127.5.442.62v.238l-.153.374v.544l.188,1.054.366,1.19v.442l-.043.408-.179.417-.127.519-.051.246.1.705.084.909-.084.765-.187.323-.264.306-.051.944-.034.646.187.365.136.6.11.255-.042.221-.2.187-.281.187.145.213.408.374h.255l.586-.578.271-.45.128.093.17.417v.357l-.229.4-.229.382-.068.986-.187.655-.068.161v.586l-.229.408-.272.722.145.272.06.272-.068.544-.127.4-.127.212-.162.127-.051-.28-.119-.2-.179.06.111.212-.034.255-.255.229.069.417-.018.144-.178.153.127.145v.246l-.254.119-.314.264h-.2l-.077.221-.093.3-.042.127v.17l-.068.238-.179.348-.2.417-.2.094-.459.094-.093.119.059.085v.238l-.263.1-.3-.263-.272.263-.145.348-.2-.11-.051.221-.179.042-.213.11-.042-.34.085-.459.034-.484.127-.383.213-.264.127-.527-.034-.4-.314-.246.145.281.06.425-.042.374-.272.357-.1.493-.229.485-.2.221-.068-.306-.127.264-.842.068-.068-.2-.119-.128-.084.144.068.1-.187.051-.2-.187-.034-.059-.153.034-.11-.034-.017-.476-.238.238-.271-.289-.2.059-.042-.484-.145-.3-.2.3a2.366,2.366,0,0,0,.042.306c.017.025.162.425.162.425l.289.417-.051.2.127.127-.332.026-.051-.2-.11-.178-.3-.093-.519-.111-.187.119.052.229-.2.1-.611.128-.111.331-.162.17v.1l.493-.306.391-.127.128-.136.153.068.068.229s.009.246.009.272-.2.127-.2.127h-.441l-.12.136.212.153.017.357-.06.11-.025.4.153.042.093-.127.2.042-.136.179.025.213-.221.094-.085-.077-.051.161-.317.117h-.166l-.07-.14.057-.108.287-.115-.057-.064-.319.032a1.221,1.221,0,0,0-.153-.064,1.36,1.36,0,0,1-.172-.109l-.05-.166.191-.108.089-.019-.2-.427-.223.3-.147.134-.185-.019-.115-.14-.044-.108-.2-.064-.191.038-.045.14-.025.325-.561.026-.178-.083-.09-.185-.019-.134-.332-.025-.21-.064-.019-.771v-.4l.044-.223.038-.236-.223.21-.089.179-.057.077-.223.025.083.236.077.115-.115.07-.4.147-.159.006-.019-.236-.159-.211-.052.383-.108.344-.268.1-.574.019-.153-.128-.319.019-.026-.146.045-.134-.141.268-.172-.089-.076-.153-.108-.013.051.2-.083.153-.1.147v.077l-.134.064-.089.172-.236.025-.141.1-.153-.23-.121-.223-.051-.057-.127.019-.122.115.045.529.172.376.236.28.28.166.319-.229.121-.1.656-.032.013.2-.178.3.077.357-.058.1h-.132l-.068-.132-.038.132.038.059.149.043.149.047.174.213.055.144.039.127-.1.115.013.089-.136-.047-.029-.081-.115-.123-.042-.14-.259-.285-.1.145-.157.106-.183,0-.208-.081-.047.106a1.231,1.231,0,0,1-.081.191c-.013,0-.174.064-.174.064l.119.281.039.531-.081.03-.166-.149-.2-.06-.212-.094-.077-.132-.029-.213.063-.264.178-.459-.03-.123-.255-.514-.148-.106.013-.111-.089-.259-.043-.081.022-.191,0-.144-.034-.106-.145.128-.136.327-.183.128-.353.123-.442,0-.021.11.378.225-.264.136-.378.153,0,.2.352,0,.047.174-.051.111.085.276.276.272.353.251.094.191-.264.059.264.064.157.111.047.119,0,.225s-.141.127-.153.136-.306.064-.306.064l-.225-.11-.2-.149-.132-.047-.276.072-.115.06-.059.174.11.17.068.1.2.017.264-.076.123.013.12.161-.17.17-.293.3-.238.051-.14.038-.145.174-.072.127.072.132-.127.042-.148-.132-.106-.174-.239-.365-.221-.23-.025-.1-.158-.144-.174.089-.306.183-.021.081-.127-.059-.179-.034-.089-.153-.038-.1.072-.212.178-.132.094-.072.114-.161.256-.349.017.459-.1.106.085.076s.089.009.106-.051a.179.179,0,0,1,.064-.1c.013,0,.293-.06.293-.06l.14-.136.013-.208-.094-.161-.131-.153-.034-.136.026-.153.1-.1.127-.149.055-.034s.132.03.145.038.081.072.081.072l-.008.259.119.157.14-.008.145-.068.1-.246.072-.17-.094-.263a2.232,2.232,0,0,0-.148-.213c-.013,0-.306.157-.306.157l-.141-.008-.152-.229-.162-.2-.285.544-.149.263-.586.055-.229.225-.289.264-.306.149-.382.183v.327l-.161.281-.013.136.021.1-.493.467.025.5-.1.1-.167-.11-.14.009-.009.37h-.166l-.349-.2-.344-.17v-1.4l-.1-.068h-.175l-.165.319.063.289-.009.136-.187.072-.018.157.128.115.047.1-.425.323.089.1.009.1-.306.021-.072.179-.442.178-.183.714-.081.391-.208.038-.514.055-.128-.2.072-.145-.03-.191-.089-.081-.318,0,.081-.144.03-.174.127-.089.12-.242-.034-.153-.081-.094-.212-.013.025-.319.034-.2-.153-.013-.025-.221.11-.111.216-.1.319.008-.166-.242.166-.162a.219.219,0,0,0,.038-.072c0-.021-.021-.3-.021-.3l-.208.276-.259-.042-.2.2-.068.11-.408-.038-.221.064-.017-.187-.327-.238-.042-.14-.115.081-.17.042-.145-.144a1.392,1.392,0,0,1-.114-.094c-.013-.017.06-.144.06-.144l.191-.009a.2.2,0,0,0,0-.089.836.836,0,0,0-.166-.136l-.23-.157-.029-.378.055-.208.055-.587.14-.094.234.064.264.523-.035.089-.131-.055.051.285.2.433.042.238.127.081.515.132.145.119.089,0,.131-.191-.17-.076-.263,0-.013-.089-.149-.161.013-.251-.123.085-.111.009-.038-.123-.017-.646.378.026.239.047.051.225.025.179.706.5.055-.026-.127-.191s-.03-.077-.017-.081.124,0,.124,0l.208.145.383.115.161.013-.06-.072-.268-.119-.093-.123-.115-.093,0-.059.068-.047-.344-.281-.145-.234-.4-.11-.353,0-.085-.089-.284-.021-.06.034-.1-.021-.127-.043.03-.085.11-.059.11-.157h.233l.035.047.391-.144.149.064.144.145.167.068h.208l.055-.149-.012-.217.084-.14.293-.047.281.1.268.042,0-.025-.034-.089.076-.077h.145l.03-.064-.115-.145-.65-.013-.039-.191.039-.217.1-.251-.064-.166s-.1-.051-.123-.038-.161.1-.161.1l-.132-.013-.229-.242.242.357.072.221,0,.208-.12.268-.119.247-.025.136-.263.068.017-.183.082-.11s-.069-.077-.082-.077a1.119,1.119,0,0,0-.187.068c-.013.013-.115.089-.115.089l-.225-.026-.213.128-.234.081-.183-.1-.072-.145.089-.127s.174-.034.187-.034a1.8,1.8,0,0,0,.153-.161l.017-.264.05-.229.128-.1-.008-.081-.213-.247-.038-.281.03-.17.268-.263-.085-.1-.191.034-.157.1-.153.076.089.145v.242l-.229.106-.2-.072-.076-.106.034-.089-.216-.285.386-.038.018.055.055-.336.2-.2-.051-.2-.1-.14-.153-.174-.221-.238-.1-.009-.025.144.047.055-.043.179a.508.508,0,0,1-.132-.013c-.012-.013-.182-.1-.182-.1l-.208-.013.157.2.034.191s-.068.064-.1.064-.128.008-.162-.068-.064-.187-.072-.2a1.8,1.8,0,0,0-.226-.11l-.217-.055-.131-.136s-.056-.132-.059-.145-.034-.187-.034-.187l.386.038.2.034.276.106.081.132s.153.051.153.038,0-.127,0-.14-.119-.14-.145-.191a1.3,1.3,0,0,1-.106-.2.883.883,0,0,1,.11-.213l.191-.009.14,0,.072.1.026.115h.114l.226-.336.029.115-.008.434.1.144a.455.455,0,0,1,.055.1,3.153,3.153,0,0,0,.391.2l.034.268.128.153.093-.119.077-.3.072-.115-.03-.331-.335-.23-.068-.255-.3-.264-.042-.31.076-.174-.14-.208.1-.3-.081-.123.17-.166s.076-.612.063-.612.208-.383.208-.383l.234.247.166,0-.272-.493-.055-.115.179-.438.276-.574.28-.459.319-.017.349-.187.331-.026.136-.246.229.009.153.11.145.094.034-.17-.06-.187-.2-.2-.3.017-.281.1-.314.085-.441.042-.2-.153-.205-.1-.051-.263.2-.314.3-.23.578-.425.255-.119.221-.323-.008-.383.314-.127h.824l.153.179.06.161.136-.136.008-.246-.2-.145-.323-.161-.263-.187.017-.161.136-.128a2.1,2.1,0,0,1,.391.034,1.584,1.584,0,0,0,.348-.077l.23-.281.246-.17.442-.059-.6-.026-.349.017-.374.17-.306.059-.306.051-.757.009.026-.535-.323-.11a3.576,3.576,0,0,1-.527.008,2.042,2.042,0,0,1,.068-.357l.442-.043.7-.076.773-.085.4-.17.569-.28.332-.229.025-.621-.119.391-.417.2-.382.187-.408.153-.484.17-.119-.34-.349-.391.018-.213-.2-.068-.187-.391a1.748,1.748,0,0,0-.213-.06,2.106,2.106,0,0,1-.281-.153h-.263l-.119.1.025-.264.621-.221.332.059-.264-.366-.246-.076-.119-.128.178-.255.111-.382.153-.136-.187-.178-.434-.187.238-.161.383-.145-.136-.178-.34-.051-.3-.187.068-.4.255-.17.255-.252.247-.148-.28-.017-.357.391-.264-.226-.11-.394.255-.357-.3-.11-.2-.663.162-.11.433-.06.068-.213-.289-.263-.026-.145.136-.077-.153-.247-.2-.119.111-.229.17-.111-.119-.145-.442.221.076.178.017.757-.2.323-.535-.179.042-.476-.034-.408.017-.374-.2-.128-.128.391-.3.178.238.4.043.2-.111.247.111.127-.281.221-.085-.238.068-.255-.255-.382.008-.357-.042-.28-.332.5-.646.136-.093-.255.093-.213.484-.034-.067-.23-.51-.289-.051.365-.2.272v-.765l.29-.493.153.042.042.2.221.085v-.272l.127.085.221-.153-.383-.068-.076-.2.145-.213-.2-.17.247-.349.187-.051-.008.34.408-.017.051-.952.212-.094.068.178v.442l.11.213-.153.442v.289l-.2.221.085.263.17-.178h.136l.255.161-.212-.595v-.145h.127l.17.187.119-.136.2-.1-.136-.136-.035-.119h.171l.187-.272v-.272s-.077-.127-.1-.127-.375-.042-.375-.042l-.11-.153.009-.085.127.017.017-.1-.068-.187-.127-.026.042-.136.11-.009.221.153.034-.263.391.025.153.128-.051.255-.084.212.067.11.238-.094.093.179-.162.408.017.382.1.3.119-.034.153-.7.136-.374.145.051.187.23a1.337,1.337,0,0,0,.018.153c.008.025.246.034.246.034l-.136-.357-.246-.281-.383-.332-.084-.255.119-.042s.238.263.264.281a.319.319,0,0,1,.076.11c.009.026.17.051.17.051l.153-.144-.255-.136-.34-.246-.094-.493.145.051.306.238.408.238.365.264v.153l-.111.17.06.153.1.433.085-.127v-.272l.043-.272.11-.2.136-.042.434.051s.3.077.323.085a2.756,2.756,0,0,1,.221.2l.144.127-.059.382-.076.272.161-.119.085-.161.136.034.034.17-.025.255-.025.136.059.4.187.527-.119.119-.136.119.246.119.034-.2.085-.187.009-.383.17-.042.127.068-.017-.179-.221-.238-.051-.17.162-.077.442-.076.424-.238.162-.145.068-.281-.051-.263.025-.068.332-.076.153-.187-.366.059-.356.153v.314l-.077.229-.544-.017-.221-.136-.314-.306a2.819,2.819,0,0,1-.187-.213.52.52,0,0,1-.043-.119l.595-.263s.136-.017.153.017.076.008.076.008l-.2-.272-.025-.688-.119.077-.119.348-.034.238-.179-.042-.382.127-.272-.145-.127.017-.025-.705.289-.332.467-.128.2-.009s.12-.1.12-.17v-.221l-.2.119-.145.119-.281-.111s-.084-.06-.127-.051a2.713,2.713,0,0,0-.255.11l-.349.383-.391.11.213-.374s-.034-.11-.06-.11-.254.068-.28.068-.077-.246-.077-.246l.264-.145.221-.145.06-.093-.382-.085-.153-.315.1-.136.2-.009.272-.034.2.128.187-.009.059.229.247.187.076-.2-.06-.264.179-.153.178.043.34-.009-.136-.127-.034-.1-.424-.009-.332-.17-.476-.068-.222-.272-.11-.093.272-.365.017-.1-.161-.076h-.306l-.272.3-.085-.238-.145-.077-.179-.263.025-.569-.042-.2.162-.161.255-.085.059-.1-.289.034-.085-.059s-.051-.578-.051-.6-.315-.536-.323-.561-.1-.442-.1-.442l-.085-.8-.093-.187.008-.468.23.017.314.145.306-.093.272.025.153.323-.06.374s-.043.119-.051.144a2.669,2.669,0,0,0,.017.281l.2-.255s.093-.331.093-.383.025-.221.025-.246-.127-.578-.127-.578Z" transform="translate(-4382.667 1629.133)"/><g transform="translate(-2493.31 -2791.085)"><path class="c" d="M2798.389,3248.347a6.555,6.555,0,0,0,1.6-.343,3.113,3.113,0,0,0,1.225-.791,3.544,3.544,0,0,0,.777-1.4,7.277,7.277,0,0,0,.273-2.156v-2.268a.357.357,0,0,0-.091-.252.338.338,0,0,0-.259-.1h-3.192a1.329,1.329,0,0,1-.553-.1,1.173,1.173,0,0,1-.385-.273,1.116,1.116,0,0,1-.231-.385,1.315,1.315,0,0,1-.077-.441,1.281,1.281,0,0,1,.077-.427,1.186,1.186,0,0,1,.616-.679,1.251,1.251,0,0,1,.553-.112h4.144a2.259,2.259,0,0,1,1.694.532,2.115,2.115,0,0,1,.5,1.512v3.01a9.076,9.076,0,0,1-.5,3.192,5.816,5.816,0,0,1-1.365,2.156,5.324,5.324,0,0,1-2.037,1.232,8.426,8.426,0,0,1-2.513.42,1.909,1.909,0,0,1-.5-.07,1.267,1.267,0,0,1-.441-.217,1.063,1.063,0,0,1-.3-.371,1.1,1.1,0,0,1-.1-.546,1.257,1.257,0,0,1,.287-.756A1.147,1.147,0,0,1,2798.389,3248.347Zm8.652,2.884v-11.76a1.271,1.271,0,0,1,.42-1.036,1.547,1.547,0,0,1,1.96,0,1.271,1.271,0,0,1,.42,1.036v11.76Z"/><path class="c" d="M2813.705,3250.671a5.063,5.063,0,0,1-1.106-.1,1.255,1.255,0,0,1-.651-.343,1.326,1.326,0,0,1-.315-.665,5.65,5.65,0,0,1-.084-1.078v-7.742a5.658,5.658,0,0,1,.084-1.078,1.322,1.322,0,0,1,.315-.665,1.23,1.23,0,0,1,.651-.336,5.387,5.387,0,0,1,1.106-.091h4.522a1.042,1.042,0,0,1,.511.112.959.959,0,0,1,.322.28,1.063,1.063,0,0,1,.168.378,1.769,1.769,0,0,1,.049.406,1.825,1.825,0,0,1-.049.42,1.007,1.007,0,0,1-.175.378.982.982,0,0,1-.826.392h-3.556a.386.386,0,0,0-.28.084.459.459,0,0,0-.084.322v2.044h3.654a1.228,1.228,0,0,1,.518.1.984.984,0,0,1,.343.259,1.058,1.058,0,0,1,.2.371,1.5,1.5,0,0,1,.063.434,1.454,1.454,0,0,1-.063.42,1.066,1.066,0,0,1-.2.371.963.963,0,0,1-.35.259,1.24,1.24,0,0,1-.511.1h-3.654v2.226a.459.459,0,0,0,.084.322.386.386,0,0,0,.28.084h4.2a1.046,1.046,0,0,1,.511.112.94.94,0,0,1,.322.28,1.077,1.077,0,0,1,.168.378,1.82,1.82,0,0,1,.049.406,1.79,1.79,0,0,1-.049.413,1,1,0,0,1-.175.371.948.948,0,0,1-.329.273,1.073,1.073,0,0,1-.5.1Zm6.944-11.228a1.235,1.235,0,0,1,.42-1.015,1.481,1.481,0,0,1,.966-.343,1.507,1.507,0,0,1,.518.091,1.331,1.331,0,0,1,.441.259,1.285,1.285,0,0,1,.308.42,1.367,1.367,0,0,1,.119.588v3.542h.476a1.121,1.121,0,0,1,.532.112.977.977,0,0,1,.336.287,1.181,1.181,0,0,1,.182.392,1.659,1.659,0,0,1,0,.854,1.18,1.18,0,0,1-.182.392.959.959,0,0,1-.343.287,1.129,1.129,0,0,1-.525.112h-.476v5.81h-2.772Z"/></g></g></svg>