<svg xmlns="http://www.w3.org/2000/svg" width="52" height="52" viewBox="0 0 52 52"><defs><style>.a{fill:none;}.b{fill:#ccc;opacity:0.5;}.c{fill:#222;}</style></defs><g transform="translate(-108 -356)"><rect class="a" width="52" height="52" transform="translate(108 356)"/><path class="b" d="M222.763,1866.929l.977.395.187-.395h-.395l.1-.291-.582-.478h.478l.395.582.894-.187.312-.395-.249-.187.1-.166.021-.478.229.374.145-.021.52-1h.229l.166-.229.312.229.291-.229v.333l.229.042.312-.374.312.166-.166.54.894.582-.229.27.229.353h.166l.436.5.27-.021.478.208h.291l.187.27-.333.374.686-.146.478.457h.769l.436-.395v-.395l-.52-.5-.27-.229h.5l.1-.26.6-.26v-.166l.374-.042.353.125v.52l-.333.416.478.644.333-.353.27.187v.249l1.475-.187.208-.416.166.27-.229.582.083.457h.145l.582.291.582-.416v-.333l.166-.852-.333-.447.187-.551-.395-.686-.166.166.229.187-.291.229-.561-.27.1-.5.436-.748-.436-.187v.208l-.5-.208-.52-.478-.021-.52-.333.27-.623-.81.416-.27-.81-.561-.333-.208-.042-.478.312-.27.083-.644h.249l.333.436.582-.436.229-.6-.1-.249.166-.1-.312-.416.042-.852h.52l.478-.395.312.291.166.333-.042.249-.249-.208-.229.27.083.249-.333.27-.021.312h.6l.395-.416.208-.021.333-.52.187.333.727-.291.312-.021.291.291.416.187.187-.249h.416l.436.332v.187l.5.062.166-.353.353.457.125-.374.229.021-.644-.54-.062-.374.312-.582-.125-.27.187-.333-.042-.249.374-.145-.187-.229.187-.1.27.125.457-.229.125-.374h-.582l-.291-.249.27-.166-.125-.54.187-.145.187.249.249-.249.1-.187.27.208h.291l.125.249.291-.146-.478-.416-.54-.333.1-.208-.187-.374.333.27.312-.042.1.353.229.021.125-.374.27-.229.125.187.187.083v.374l.249.062v.457l.166.333.166-.1.249.166.187-.291-.1-.208.1-.416-.187-.146-.1-.291-.374-.208-.249-.249.166-.229.353.146.291.021.436-.166-.395-.665.208-.125-.416-.395-.166.623-.395.042-.291-.333-.333-.021-.145-.54.436-.187-.125-.27.249-.187-.042-.956.187.208h.291l-.042-1.247-.145-.333.312-.312h.374l.291.229.353-.333v-.333l-.707-.208-.6-.395.416-.125.208.187.894.146v.312l.291.291v.374l.5.291.145-.1.166.042.416-.1v-.395l-.166-.416h.166l.52.52.229.208.457-.062.54.333v.145l.332.27.187.54.416-.1-.229.312.042.166-.145.1.208.249-.81,1.766-.395.229v-.457l-.291.062-.062-.229-.561.166-.416.5v.353l.229.229h.5l.145.353-.083.416-.436-.208-.062-.249-.436.187-.353-.042-.27.125-.249.374.312.125v.249l.208.249.353-.146.229.125-.166.229.1.291-.395.021.1.457-.062.291-.312.042-.125.312.145.229.145.727.312.333.187-.187.1.146.416-.146-.1.416.561.748.208-.229.977.249-.083.229.208.436-.416-.1-.1.208.457.977.665.561.333,1.268-.1.27-.457.249.042-.395-.249-.374-.249.021-.187.146.333.229-.145.291-.416.042.062.312.5-.021v.187l-.291.166.229.208-.27.042.291.395-.042.166-.395.166.145.125.083.395.249.686h.333l.229.353-.52.873-.478-.436-.291-.125-.208.021-.187.291.249.312.021.312.042.5.582.437-.208.062-.1.187-1.746.021-.561.457-.042.79.312.686-.249.873h.312l-.1.52.042.249.831-.727.187.249.27.021-.582.79.457.374h.374l.873-1.143.145.062.125-.395-.291-.249.125-.249.395.291.145-.312.166-.79.769-.125.1-.457.187.333v.52l.52.166h.249v-.312l.6-.52.145.062.52-.644.187.1-.291.353.042.187-.769.79-.187.208.333.436-.166.042-.52.1-.145.333.623.769-.062.727-.291.291h-.395l-.27.249-.291.146-.333-.1.1-.436-.312-.166-.416.083-.021.291.353.333.166.561.021.707.54.333.042.748.229.166-.125.395h-.54l-.291.333-.353-.229-.208-.5-.374-.623h-.333l-.665.416-.457.208v.27l-.5.1-.27.353.083.6.145.769.831.54.187-.582.312.021.52-.769.416.312-.021.249.395.1.021.395-.249.624-.27-.146-.291.146v.6h.187l.249,1.1.644.291.436.894.395.353v.457l.374.146-.229.436.395.644v.665l-.291.125-.353-.644-.561-.312-.54.062-.5-.021-.395-.353-.395.146-.333-.187-.145-.436.644-.187-.042-.478-.145-.312h-.249l-.042-.52-.229-.208-.125-.457-.416-.021-.021.312-.52.291-.686.5.353.27.1.333.062.644-.79.021-.5-.27.457-.436.083-.561-.27-.395-.707-.229-.727-.333-.707-.312-.665.249-.166.478.208.395.021.353-.333.374.291.436-.125.665.145.333v.229l.707.312.062.416-.478.312-.021.353-.249.146h-.52l-.062.312-.395.416h-.582l-.187-.229-.395-.333-.644.083-.353.478-.478,1.018-.125.769.561.665.229.416.187.416.561.353-.374.582.478.353.021.333h1.392l.187-.457.125.146.395-.166.395.166.042.312.27-.312.478.187-.1.125.208.249.457.478-.686-.27-.208.478.1.873-.229-.187h-.436l.208-.416-.208-.249.208-.312-.062-.291-.353.062-.249.5-.374-.457-.748.083-.291-.332h-.353l-.125.27.145.769-.478-.312-.623.146-.353-.208-.582.436-.6.042-.291.249-.083-.291.416-.27-.374-.312-.364.166v.27l-.156.1-.333.062-.1.312.27.395.1-.436.218.291.322.146-.083.478h.249l.333.831.561.1.623.5-.083.353-.623.52-.478-.353-.54-.021-.062-.416-.6.187-.374.956-.561.146-.665.52-.478-.166c-.062-.021-.81-.6-.81-.6l-.748-.27-.561.249-.229.042-.416.374-.042.145-.5.042-.042-.374-.187-.042.5-.416-.1-.436.312-.561.353-.083.1.208.5-.27-.083-.333-.395-.27.1-.166.374-.125.478.083.935-.52.1-.145.353.187.1-.748.374-.062-.229-.374-.1-.395-.395-.125-.769.249-.52-.5-.54.208h-.291l-.395-.478-.561.062.187-1.995.478-.395-.083-.27-.145-.042-.145-.437.374-.062.312-.478.1.021-.083.374.125.1.644-.353.914.187.187-.146.125-.312-.395-.249-.665-.395.6-.852s-.145-.249-.208-.27a3.028,3.028,0,0,0-.436,0s-.125.208-.187.208-.748-.042-.748-.042l-.291.249-.52-.436h-.27l-.187.5-.769.187-.166.478-.312.312-.208.436-.249-.229-.665.021-.27-.291.166-.707-.249-.229.6-.561.395.083.478-.478.021-.291.582-.021.1-.457-.395-.249-.623-.042-.54-.208-.291.436-.1.54-.727.416-.436.623-.229.208-.145-.79.436-.561-.042-.187-.6-.083-.1-.229.436-.166h.582l.291-.291.062-.54.395-.021.083.395.416.083.166-.166.436.27.478-.416.333.083.6-.249.125.166.6-.229.1-.229.457-.249.083-.561-.208-.561.291-.54-.1-.6.042-.769.229-.312h.187l.374-.644.27-.062.166-.312v-.249l-.436.1-.208-.333-.312-.062-.353-.5.249-.312-.353-.457h-.54l-.312-.52.478-.1.5.291.27.187.187-.6-.333-.561-.353.042-.665-.811-.707.042-.1.145.021.291-.166.312-.27.083-.021.27-.27-.083-.353.6.229.769.021.624-1.475.042-.748-.083-.1-.208-.208.1-.436-.27-.27.229.229.457-.145.229-.623-.208.145-.208-.54-.187-.249.249-.686.125.686.187-.707.478.083.249.582-.042.229.54h-.52l-.374-.312-.374.229.27.166.312.6-.083.291-.416.5-.312.166-.021.416-.478-.208a1.139,1.139,0,0,1-.249.083,12.818,12.818,0,0,1-.249-1.517l-.956-.665.083-.5.229-.187-.166-.6.374-.561-1.018.561-.353-.644-.312-.166-.977-.249-.333-1.1a2.107,2.107,0,0,1-.249-.291,1.1,1.1,0,0,1,0-.374l.395-.062v-.665l-.413.166-.356-.166.27-.208-.27-.686.125-.748s-.416-.249-.416-.312v-.707l.166.125-.166-.395.416-.291-.062-.79.457-.146.021-.333.644-.208.125-.436.6-.561-.021-.27.249-.187-.062-.353.229-.042.249.208.416.1-.1-.333.187-.083-.416-.457Z" transform="translate(-102.75 -1490)"/><g transform="translate(-2361.711 -2862.685)"><path class="c" d="M2483.347,3248.347a6.993,6.993,0,0,0,1.519-.35,3.234,3.234,0,0,0,1.218-.763,3.5,3.5,0,0,0,.8-1.351,6.53,6.53,0,0,0,.294-2.128v-2.366a.357.357,0,0,0-.091-.252.338.338,0,0,0-.259-.1h-3.178a1.163,1.163,0,0,1-.539-.112,1.15,1.15,0,0,1-.364-.287,1.065,1.065,0,0,1-.21-.392,1.479,1.479,0,0,1,0-.854,1.037,1.037,0,0,1,.2-.385,1.114,1.114,0,0,1,.364-.28,1.207,1.207,0,0,1,.546-.112h4.116a2.26,2.26,0,0,1,1.694.532,2.115,2.115,0,0,1,.5,1.512v2.408h2.128v-3.626a1.235,1.235,0,0,1,.42-1.015,1.481,1.481,0,0,1,.966-.343,1.507,1.507,0,0,1,.518.091,1.416,1.416,0,0,1,.448.259,1.245,1.245,0,0,1,.315.42,1.367,1.367,0,0,1,.119.588v11.788H2492.1v-5.782h-2.254a6.666,6.666,0,0,1-.763,2.331,5.235,5.235,0,0,1-1.365,1.575,5.819,5.819,0,0,1-1.848.931,9.529,9.529,0,0,1-2.212.385,1.5,1.5,0,0,1-.5-.056,1.211,1.211,0,0,1-.434-.224,1.124,1.124,0,0,1-.3-.385,1.23,1.23,0,0,1-.112-.539,1.127,1.127,0,0,1,.252-.749A1.182,1.182,0,0,1,2483.347,3248.347Z"/><path class="c" d="M2500.819,3241v.7a27.9,27.9,0,0,1-.168,3.234,3.994,3.994,0,0,1,1.057.742,3.611,3.611,0,0,1,.749,1.1,5.686,5.686,0,0,1,.42,1.547,10.714,10.714,0,0,1,.056,2.086h-2.478a5.77,5.77,0,0,0,.056-1.673,2.539,2.539,0,0,0-.42-1.141,5.084,5.084,0,0,1-1.988,2.744,1.723,1.723,0,0,1-.518.224,1.911,1.911,0,0,1-.553.056,1.378,1.378,0,0,1-.511-.126.909.909,0,0,1-.378-.322,1.227,1.227,0,0,1-.2-.854,1.162,1.162,0,0,1,.462-.8,3.882,3.882,0,0,0,.924-.973,4.688,4.688,0,0,0,.581-1.337,9.978,9.978,0,0,0,.3-1.883q.084-1.1.084-2.611V3241h-1.2a.883.883,0,0,1-.448-.112,1.116,1.116,0,0,1-.329-.28,1.372,1.372,0,0,1-.21-.371,1.122,1.122,0,0,1-.077-.4,1.548,1.548,0,0,1,.056-.392,1.089,1.089,0,0,1,.182-.378,1.028,1.028,0,0,1,.322-.28.914.914,0,0,1,.462-.112h4.886a.911.911,0,0,1,.462.112,1.039,1.039,0,0,1,.322.28,1.107,1.107,0,0,1,.182.378,1.548,1.548,0,0,1,.056.392,1.208,1.208,0,0,1-.07.4,1.364,1.364,0,0,1-.2.371,1.059,1.059,0,0,1-.315.28.846.846,0,0,1-.441.112Zm2.688,3.962H2502.5a1.229,1.229,0,0,1-.539-.1,1.129,1.129,0,0,1-.364-.273,1,1,0,0,1-.21-.385,1.524,1.524,0,0,1-.063-.427,1.454,1.454,0,0,1,.063-.42,1.122,1.122,0,0,1,.2-.385,1.012,1.012,0,0,1,.364-.28,1.281,1.281,0,0,1,.546-.1h1.008v-3.3a1.11,1.11,0,0,1,.35-.889,1.248,1.248,0,0,1,.84-.3,1.309,1.309,0,0,1,.847.3,1.079,1.079,0,0,1,.371.889v11.956h-2.408Zm3.066-5.684a1.069,1.069,0,0,1,.378-.889,1.358,1.358,0,0,1,.868-.3,1.391,1.391,0,0,1,.462.077,1.179,1.179,0,0,1,.4.231,1.12,1.12,0,0,1,.385.882v11.956h-2.492Z"/></g></g></svg>