<svg xmlns="http://www.w3.org/2000/svg" width="52" height="52" viewBox="0 0 52 52"><defs><style>.a{fill:none;}.b{fill:#ffb900;opacity:0.5;}.c{fill:#222;}</style></defs><g transform="translate(-108 -428)"><rect class="a" width="52" height="52" transform="translate(108 428)"/><path class="b" d="M3601.053,1816l.277.343.2.919.476.066.155.687.354.974.554.531a8.6,8.6,0,0,0,.465.975,15.617,15.617,0,0,1,.155,1.584l-.321.986.077.72-.509.886-.044.952-.842.255-.731.133-.631.343.089.233-.288.421v.93l-.354.221.41.432.066.188,2.071-.066.122.177h.332l.089-3.023,1.406-.288-.764.521,1.428,2.215.532.4-.177.5,1.262,1.717.709.9.244.222.653.078.233.288s-.609.543-.642.554-.8,0-.8,0l.044.7h.233l.1,1.041h-.676l-.055-.177-.255-.078-.288.255.022.122.487.244.078.842.155.388-.233.321.221.233.055,1.761-.144.343-1.517-.055-1.1.055-1.185-.277-1-.066-1.262-.044-1.573.288-1.628-.332-.8-.078.055,1.838.221.521v.41l-.676.111-.266.41-.9.321-.1.377-.764.653H3594l-.21-.177-1.129.1-.221-.255-1.65.111-.587.3-.764-.388-.709-.011-.687.244.188,1.1-.343.443-.465.41-.243.509v.7l-.388.82h-.543l-.587-.5-.554-.033-.72.388-.775.388h-.731l-1.329-.2-1.13-.011-1.229.543-.5-.111-.277-.365-.753.078-.8-.188-1.008.808-.388.454-1,.487-.831.7-.3.432-.089.421-1.041.864-1.506,1.573h-.742l.321-.753s-.033-1.595-.078-1.672-.354-.687-.354-.687l.432-1.119-.066-.653-.365-.476.476-.521-.565-.432-.72-.465-.62-.166-.122-.376-.7-.266-.365-.676-.576-.1-.676-1.019-.786-.111-.31-.443-.454-.033-.554-1.185-.786-.521.066-1.2-.255-.454.166-.1.387-.93-.41-.055-.631-.487v-.465l-.487-.155-.077-.819-1.34-.963-.133-.266-.51-.1-.133-.332-.288-.122-.133-.443-.576-.321.188-.465.044-1.2.532-.443.044-.7.51-.753.022-.709.454.022.277-.277h.908l.742-.3.277-.454.421-.078.111-1.185.6-1.274.133-.786.277-.332.62-.033.521.332.864.842,1.129.631h.432l.343.233.642-.122.509.31.653-.321.155.2.332-.465.521.421,1.617,1.2.731.3-.332.576.133.631.343.233.521.343.111.055.3-.31.82-.089.4-.476.387-.2.321-.864.221-.266.443-.665.376-.166.277.166.62-.5a2.278,2.278,0,0,0,.3-.5c-.011-.078.3-1.141.3-1.141l.521-.122.044-.122.864-.222.6-.011.465-.376.853-.642.476-.177.288.332.388-.044.443-.277,1.074-.055.8-.476.487-.244.742-.8v-.4l.875-.676.543-.1.387-.41.952-.011.676.044.354.288.354-.177.321-.31.2.1.454-.166.343-.033.155.2.31-.277.443.111.332-.521.753-.166.41-.354.642.066,1.318.21.177-.31.3-.1h.93l1.384-1.1-.066-.454.21-.233.067-.221.443-.078.332-.377.376.066.122-.233Z" transform="translate(-3449.75 -1380)"/><g transform="translate(-2571.715 -2790.664)"><path class="c" d="M2697.323,3244.259v-.56a1.266,1.266,0,0,1,.119-.574,1.068,1.068,0,0,1,.315-.385,1.328,1.328,0,0,1,.448-.217,2.008,2.008,0,0,1,.532-.07,2.039,2.039,0,0,1,.525.07,1.319,1.319,0,0,1,.455.217,1.08,1.08,0,0,1,.315.385,1.276,1.276,0,0,1,.119.574v.56h3.906a1.091,1.091,0,0,1,.9.329,1.185,1.185,0,0,1-.007,1.505,1.081,1.081,0,0,1-.889.336h-10.78a1.081,1.081,0,0,1-.889-.336,1.169,1.169,0,0,1-.273-.756,1.156,1.156,0,0,1,.266-.749,1.091,1.091,0,0,1,.9-.329Zm2.6-4.634a6.643,6.643,0,0,1,1.589.217,4.386,4.386,0,0,1,1.4.651,4.6,4.6,0,0,1,1.127,1.155,5.875,5.875,0,0,1,.784,1.729H2702a3.209,3.209,0,0,0-1.428-1.379,3.505,3.505,0,0,0-2.044-.287,6.974,6.974,0,0,1-1.057.714,7.856,7.856,0,0,1-1.218.546,8.516,8.516,0,0,1-1.295.343,6.317,6.317,0,0,1-1.288.1,1.2,1.2,0,0,1-.931-.364,1.091,1.091,0,0,1-.287-.77,1.159,1.159,0,0,1,.336-.777,1.33,1.33,0,0,1,.952-.371,3.834,3.834,0,0,0,1.064-.189,5.308,5.308,0,0,0,1.022-.448,3.624,3.624,0,0,0,.819-.63,1.923,1.923,0,0,0,.469-.763,1.481,1.481,0,0,1,1.652-1.134,1.558,1.558,0,0,1,.91.371,1.152,1.152,0,0,1,.294,1Zm-6.09,9.66a1.221,1.221,0,0,1-.875-.287,1,1,0,0,1-.3-.763.96.96,0,0,1,.3-.749,1.259,1.259,0,0,1,.875-.273h8.792a4.639,4.639,0,0,1,1.022.091,1.18,1.18,0,0,1,.609.322,1.243,1.243,0,0,1,.294.63,5.435,5.435,0,0,1,.077,1v1.974h-2.8v-1.638a.272.272,0,0,0-.308-.308Z"/><path class="c" d="M2711.2,3248.683v-1.526a1.4,1.4,0,0,1,.119-.595,1.281,1.281,0,0,1,.322-.434,1.335,1.335,0,0,1,.462-.259,1.781,1.781,0,0,1,.553-.084,1.667,1.667,0,0,1,.546.091,1.5,1.5,0,0,1,.469.259,1.206,1.206,0,0,1,.322.427,1.412,1.412,0,0,1,.119.595v1.526h3.934a1.369,1.369,0,0,1,.546.1,1.029,1.029,0,0,1,.364.259,1,1,0,0,1,.2.364,1.384,1.384,0,0,1,.063.413,1.246,1.246,0,0,1-.273.784,1.078,1.078,0,0,1-.9.35h-10.752a1.078,1.078,0,0,1-.9-.35,1.246,1.246,0,0,1-.273-.784,1.384,1.384,0,0,1,.063-.413.991.991,0,0,1,.2-.364,1.028,1.028,0,0,1,.364-.259,1.367,1.367,0,0,1,.546-.1Zm2.856-7.126a3.1,3.1,0,0,1-.126.784h.154a6.336,6.336,0,0,1,1.7.231,4.564,4.564,0,0,1,1.505.728,4.028,4.028,0,0,1,1.113,1.281,4.352,4.352,0,0,1,.511,1.876h-2.758a2.271,2.271,0,0,0-.378-.924,2.473,2.473,0,0,0-.686-.651,3.025,3.025,0,0,0-.931-.385,4.756,4.756,0,0,0-1.113-.126,1.322,1.322,0,0,0-.322.042,5.555,5.555,0,0,1-1.043.84,7.522,7.522,0,0,1-1.211.616,8.4,8.4,0,0,1-1.288.4,8.517,8.517,0,0,1-1.3.189,1.513,1.513,0,0,1-1-.245,1.1,1.1,0,0,1-.483-.777,1.156,1.156,0,0,1,.182-.84,1,1,0,0,1,.77-.434,7.356,7.356,0,0,0,1.4-.266,4.844,4.844,0,0,0,1.169-.511,2.985,2.985,0,0,0,.847-.77,2.393,2.393,0,0,0,.434-1.057h-3.374a1.066,1.066,0,0,1-.9-.357,1.273,1.273,0,0,1-.273-.791,1.389,1.389,0,0,1,.063-.413,1.055,1.055,0,0,1,.2-.371.978.978,0,0,1,.364-.266,1.363,1.363,0,0,1,.546-.1h3.346a1.249,1.249,0,0,1,.427-.959,1.634,1.634,0,0,1,1.071-.329,1.616,1.616,0,0,1,1.064.336,1.246,1.246,0,0,1,.434.952h3.346a1.367,1.367,0,0,1,.546.1.986.986,0,0,1,.364.266,1.055,1.055,0,0,1,.2.371,1.389,1.389,0,0,1,.063.413,1.273,1.273,0,0,1-.273.791,1.066,1.066,0,0,1-.9.357Z"/></g></g></svg>