<svg xmlns="http://www.w3.org/2000/svg" width="52" height="52" viewBox="0 0 52 52"><defs><style>.a{fill:none;}.b{fill:#ffb900;opacity:0.5;}.c{fill:#1a1311;}</style></defs><g transform="translate(-16 -356)"><rect class="a" width="52" height="52" transform="translate(16 356)"/><path class="b" d="M3671.2-717.488l.747-1.349.651-.289v-.554l.747-.6h1.59l.482-.217h.458l.289.41.434.024v.289l1.084.651h.482l.217.133-.289.3.916.916-2.892,3.229h-.193l-.337.361-.1.265-.6.12.024,3.47.193.627-.723.7h-.265l-.361.241.048.458-.12.313.458.313.53.193.434-.217-.289.675-.362.193.265.41.554.434.072.458.8.458.626-.169-.241.482h-.988l-.265.578h-.578l-.1.506.241.41-.072.313.337,1.349v1.253l-.554.241.241.458-.53-.337-.506.169-.241.482-.289-.169-.771.506-.1.361h.337l-.337.337-.289-.289-.289.289.241.289-.289.289-.024.313.6,1.181h.217l.024.337.337.41h.12l.145-.361.337-.217.482.024-.241.8-1.06.458-.145.386.434.193-.8.843h-.289l-.675.12h1.084l.072.482-.434.988.337.434-.289.506,1.4,2.024-.6,3.373-.193.169.506.482h.241v-.169l.53-.169-.024-.265.434-.313.361-.7.265-.024.217.241.867-.53-.145-.361-.169-.145.1-.241.193.1.1-.482.362.12-.072-.41.072-.8-.289-.217-.217.217-.41.024-.169-.723.385-.6.362-.217.41.313-.145.386.289.241.41-.482-.169-.771.145-.1.651.337.651.072.337-.1.072.193.916.024v-.241l-.651-.627-.168.12-.434-.265.217-.313.434-.024-.072-.506-.554.458-.6.024-.1-.145.241-.048.482-.626.8-.048.048-.482-.458-.072-.265-.313.626-.434.024-.434.265-.193.169-.024.8-.578.747-.072-.337-.964-.361-.241-.675.41-.217-.169.024-.482-.458-.506-.169-.482-.265-.048.169-.313-.362-.241-.169.12-.12.217-.94-.6.626-.289.747-.024.458-.53.193.193.626.072.8-.482.434-.048.385.12.241.578-.458.554-.1.41,1.446.94v.771l1.133.1-.193.361-.747.217-.313.337h-.289l-.434.41.048.289.41.048.12.337.458-.048.12.458.385.265v-.385l.626-.506h.578v.193l.482.313v1.229l-.6.048.169.458.434.747.867-.313.7.048.361-.434.313-.024.193.313v.627l.482.241-.169.217-.482-.024-.458.169h-.6l-.145.313-.193.1v.265l.723.675-.169.482-.7.337-.1.747.265.241-.554.964.048.916.1.361v.458l-.361.265-.313-.289-.626.145-.121-.313-.506-.313.145-.819-.458-.145.241-.169-.217-.578.385-.241-.048-.434-.41-.7-.337-.1-.241-.072-.53.265.337.554-.241.385.217.313-.121.313.024.53v.361l.265.313-.121.313-.41.193.072-.506-.193-.241-.1-.169-.458.1-.217.482.385.289.048.313.482.386.048.386.386-.145.12.289-.072.217h-.434l-.217-.217-.145.217.1.41-.1.169-.844-.458h-.313l-.361.7.193.434-.168,1.108,1.494,2.145-.434.458-.361.385h.313l-.313.482.024.386.265.12.41.217-.313.12-.048.41-.362.313h-.482l-.675.578h-.578l-.217.241h-.217l-.265.313-.289.193-.964-.193-.506-.072-.41-.145-.217-.217-.6.506.193.675h.7l.265.482.675-.313.554.072-.313.241-.651.241-.434.265-.434-.217-.289-.169-.337.072-.169.313-.53-.313-.313-.169-.434-.627.217-.964-.7-.024-.313.41.578.6-.024.53-.41.12-.265.193-.313-.217-.675.072-.289-.217-.675.506-.651.747h-.458l-.578.651h-.578l-.819.53h-.482l-.482-1.108-.385-.7-.6-.747-.313.12a8.2,8.2,0,0,1,.482.819c0,.072-.121.578-.121.578l-.361.482v.8l-.217.289v.41l-.482.193-.554-.145.6-.675-.289-.361-.072-.458-.6-.265v-.337l-.385.289-.434-.41-.482.651-.385.241-.217-.506-.313-.1.169-.892.747-.265.458-.048.193.12.072-1.084-.819-.675-.819.1-.313-.265-.193.024v.964l-.771.145-.554.289-.409-.385-.289-.072-.651-.819.7-.1.193.337.337-.169.385-.024.024-.6-.434-.41-.747-.169-.169-.458-.94-.193.145-.217.1-.482.458-.434v-.289l.819.7.892.048.313-.386.048-.361.337-.241.289-.024.1-.506.313-.1.41.1.193-.289-.145-.675-.145-.506.12-.41.6.627.361-.1.1-.41.362-.12-.265-.41.193-.217.482-.024.6.458.169-.482h.892l.1.843-.554.578.482.313.313-.193.145-.651.6-.627.289-.024,1.036.458.892.024.867.289.145.361.482-.024.313-.843.217.072.506.723.434-.41.386-.53-.313-1.181-.482-.145-.578-.675-.6.12-.289.313.241.723-1.494-.1.482-.458-.313-.386h-.651l-.337-.217-.217.241.265.361-.072.217-2.1-.386-.265-.289-.434.169-2.458-.145-.506-.53-.024-.867h.313l.289-.651.313-.024.482.434.361-.12.048-.458-.313-.1v-.482l-.626-.41-.313.289-.024.337-.988.651-.217.458-.313-.482.024-.8.7-.217-.458-.747.747-.771.169-.024-.072-.506-.554-1.012-.024-.434-.53-.41-.048-.843-.65-.265-.627-.1-.53.048.361.289.289.145.819,1.3-.289.843-.53.458h-.6l-.193-.265-.554-.7-.434-.313-.41.048.121.361.072.506.651.53.12.53-.169.747.024.771.434.265.675.94.024.458-.844.53-.8-.892-.313-.1-.217-.265-.482.024-1.084,1.036-.121-.554-.289-.024-.362.313-.578-.1v-.313h-.193l-.506.241v-.843l.337-.337-.217-.361.482-.578-.386-.7.289-.12-.024-.651-.337.361-.53.048-.193.313-.385-.554.169-.8-.458-.651v-.41l-.362-.193-.169-.169-.313.193.554,1.06-.217.578.434,1.759-.386.434-.024.386-.169.169-.048.386-.434-.217-.53.265-.53-.048v-.458l-.53-.337.217-.193-.1-.675.265-.988-.385-.578-.626.048.145.337-.578-.072-.169-.313-.458-.024-.265-.313-.482.434-.169.313.723.024.1.337-.048.361.578.361-1.156.217-.193-.627h-.193l-.193.193.193.627-.434.1v.337l-.506-.145-.337-.627-.362-.554v-.8l.362-.386.53-.289.337-.554-.482-.313-.482-.217-.265.193-.241.41-.361-.048-.482.337v.554l-.434.723v.193l-.578-.024-.409-.241v-1.181l-.94-.53-.6.241-.482-.12.482-.458-.048-.554-.434-.627.313-.169-.313-1.229-.6-.024-.265-.482-.289-.53-.434-.361-.675.193a5.057,5.057,0,0,1-.651-.386c-.048-.072-.361-.6-.361-.6v-.53l.554-.277h.265l.506-.422.53-.651.337-.241.169-.024.7-.6h2.362l.554-.265.313.12-.265.386s.289.337.362.41.337-.361.337-.361l.1.313h.7l.1-.193.53.12.867-.506.578-.1h.458l.506.41.217-.217.964-.145.169.289.458.482h.53l.361.289.048.241.289.193.313-.313.723.145.41-.289.145-.337.626-.53.506-.048.1-.361-.241-.265-.193-.675-1.036-1.349.289-.241.145.361s.337-.193.361-.289.289-.53.289-.6a6.6,6.6,0,0,0-.265-.675l-.362.193-.65.024-.482.1-.7-.7.265-.337.506.024h.771v-.337l-.819-.434-.289-.193-.892.53-.1-.12.217-.337-.506-.361-.121.361-.313.361-.169.554-.554-.434.1-.41.265.048.265-.41.362-.217-.1-.193.362-.12.1.12.434-.747-.458.072-.121-.386.169-.193.193.12.554-.747v-.554l-.6-.024.362-.193-.048-.723-.168-.193.337-.627.072-.361.434-.289v.337l.554.193.313.506.169-.169.193-.578.361-.482.723-.145.169-.145.916-.337.169-.12.892.12.193-.1.554-.506.7-.337h.362l.361.313h.867l.651-.145.6-.578.458.145.6-.289.771-.627.024-.386.53-.072.482-.41h.482l-.41-1.614v-1.47l.41-.072.337-.8.844-.12.289-.072.964.12.217-.53-.193-.892.289-.289v-.554l.169-.1.554.169.554.53.964.241.313-.048.434.241Z" transform="translate(-3621 1077.5)"/><g transform="translate(-2401.115 -2862.685)"><path class="c" d="M2434.753,3244.315v-.588h-2.982a1.654,1.654,0,0,1-1.218-.364,1.631,1.631,0,0,1-.35-1.162v-2.422a1.314,1.314,0,0,1,1.568-1.54h9.576a.678.678,0,0,1,.588.252.869.869,0,0,1,0,1.064.678.678,0,0,1-.588.252h-8.092c-.178,0-.266.08-.266.238v.238h8.274a.722.722,0,0,1,.595.217.793.793,0,0,1,0,.994.722.722,0,0,1-.595.217h-8.274v.238c0,.1.019.168.056.2a.37.37,0,0,0,.21.042h8.26a.658.658,0,0,1,.581.252.877.877,0,0,1,.175.5.906.906,0,0,1-.175.539.664.664,0,0,1-.581.245h-3.934v.588h4.13a.917.917,0,0,1,.784.3,1.083,1.083,0,0,1,.224.665,1.057,1.057,0,0,1-.231.672.931.931,0,0,1-.777.294h-11.088a.931.931,0,0,1-.777-.294,1.057,1.057,0,0,1-.231-.672,1.082,1.082,0,0,1,.224-.665.916.916,0,0,1,.784-.3Zm5.026,2.394a3.475,3.475,0,0,1,1.141.168,2.107,2.107,0,0,1,.8.476,1.883,1.883,0,0,1,.462.721,2.934,2.934,0,0,1,0,1.834,1.865,1.865,0,0,1-.462.721,2.119,2.119,0,0,1-.8.476,3.475,3.475,0,0,1-1.141.168h-7.224a3.475,3.475,0,0,1-1.141-.168,2.119,2.119,0,0,1-.8-.476,1.865,1.865,0,0,1-.462-.721,2.934,2.934,0,0,1,0-1.834,1.883,1.883,0,0,1,.462-.721,2.107,2.107,0,0,1,.8-.476,3.475,3.475,0,0,1,1.141-.168Zm-.882,2.716a.674.674,0,0,0,.469-.119.476.476,0,0,0,0-.63.679.679,0,0,0-.469-.119h-5.46a.675.675,0,0,0-.469.119.477.477,0,0,0,0,.63.67.67,0,0,0,.469.119Z"/><path class="c" d="M2447.8,3245.295a6.432,6.432,0,0,1-1.582-.182,3.4,3.4,0,0,1-1.225-.567,2.562,2.562,0,0,1-.791-.994,3.5,3.5,0,0,1-.28-1.463v-.6a3.5,3.5,0,0,1,.28-1.463,2.564,2.564,0,0,1,.791-.994,3.4,3.4,0,0,1,1.225-.567,6.432,6.432,0,0,1,1.582-.182,5.878,5.878,0,0,1,1.82.259,2.886,2.886,0,0,1,1.288.8h2.66a1.345,1.345,0,0,1,.133-.546,1.184,1.184,0,0,1,.308-.392,1.429,1.429,0,0,1,.427-.238,1.536,1.536,0,0,1,1.022.007,1.418,1.418,0,0,1,.448.259,1.245,1.245,0,0,1,.315.42,1.367,1.367,0,0,1,.119.588v6.076h-2.772v-1.246h-2.688a2.843,2.843,0,0,1-1.281.777A6.059,6.059,0,0,1,2447.8,3245.295Zm-3.332,3.234a3.1,3.1,0,0,1,.182-1.064,2.431,2.431,0,0,1,.539-.875,2.523,2.523,0,0,1,.9-.588,3.43,3.43,0,0,1,1.274-.217h6.216a3.492,3.492,0,0,1,1.26.21,2.528,2.528,0,0,1,.91.581,2.4,2.4,0,0,1,.546.875,3.286,3.286,0,0,1,0,2.156,2.4,2.4,0,0,1-.546.875,2.525,2.525,0,0,1-.91.581,3.5,3.5,0,0,1-1.26.21h-6.216a3.45,3.45,0,0,1-1.274-.217,2.535,2.535,0,0,1-.9-.588,2.443,2.443,0,0,1-.539-.868A3.077,3.077,0,0,1,2444.469,3248.529Zm3.332-5.222a1.319,1.319,0,0,0,.847-.252.979.979,0,0,0,.315-.812v-.91a.982.982,0,0,0-.315-.8,1.514,1.514,0,0,0-1.694,0,.982.982,0,0,0-.315.8v.91a.979.979,0,0,0,.315.812A1.317,1.317,0,0,0,2447.8,3243.307Zm-.49,5.222a.954.954,0,0,0,.168.525.694.694,0,0,0,.63.259h4.732a.694.694,0,0,0,.63-.259.9.9,0,0,0,0-1.05.694.694,0,0,0-.63-.259h-4.732a.694.694,0,0,0-.63.259A.958.958,0,0,0,2447.311,3248.529Zm4.3-6.44v.126a.474.474,0,0,1-.014.112h1.974v-1.036h-1.96Z"/></g></g></svg>