<svg xmlns="http://www.w3.org/2000/svg" width="52" height="52" viewBox="0 0 52 52"><defs><style>.a{fill:none;}.b{fill:#ffb900;opacity:0.5;}.c{fill:#222;}</style></defs><g transform="translate(-200 -356)"><rect class="a" width="52" height="52" transform="translate(200 356)"/><path class="b" d="M1117.1,1978.113l-.185-.118-.168-.538-.118-.1-.286.235h-.269l-.235-.336-.907-.2-.773-.823v-.336h-.487l-.1-.487-.538-.823h-.134v-.336l-.151-.185.269-.286.185.118.1.118.437-.319.252.168h.773l.235-.168.79.588.907-.235.218-.219.689.168.336-.807h.487l.134-.252.134.134.319-.134.168-.168h.807l.437.353v.3l.185.118-.151.118-.185.3-.252-.2-.235.067.538,1.059.151.017.252-.118.168.034-.2-.336-.034-.538.235-.151h.42l.151.151v-.42l-.37-.1-.067-.185-.168-.168.185-.3-.2-.269-.336-.218.118-.235.639.252.017-.252-.084-.689.269-.219-.622-.773.067-.555-.571-.924.1-.3.538-.655.6-.353.218-.286.286-.135.84.252.706-.252h.538l-.4-.538.319-.386.336.1.3.554h.252l.118.134,1.025-.487.941-.857.42-.151.454.42,1.327-.1.521-.1.857-.118,1.227-.42.554-.319.5-.207h.336l.56-1.725.784-2.218V1960l.963-.291,1.591.246.4.135.2-.515.515-.426-.246-.448.627-1.031h1.165l.493.47.65-.9.358-.269.224-.291.963-.179.112.112.627-.426.381.157.381-.56v-1.255l.672-.358.179-.6.381-.247.179-.426-.291-.515.2-.291-.022-.269h.246l-.157-.358.291-.4h.426v-.47l-.157-.493-.56-.538v-.2h-.381l-.179-.224-.022-.291h.672l.627.314.359-.09.493.2.269-.134.09.179h.381l.762.4.515.515.448.291h.269l.358.291.336-.022.314-.291h.2v-.269l.336-.359.538-.179.2-.358.4-.291v-.583l.112-.6-.314-.47h-.157l-.022-.336.291-.717h.2l.493.246.359.493.9.426,1.389-.314.269.179.224-.381.381-.224.694.314.314-.291v-.246l.56.246.829-.358v.47l.269.4.224.09.246.47.269.157.358.851.426.269-.246.538.022.56.426.583-.157.2.045.358-.448.65.56.291.359-.269.179.381.269-.067.4.246.426-.224.2.269-.246.269.246.4-.134.739-.246.246-.022.4h-.829l-.358-.224.09-.426-.291-.246-.426-.045-.045-.336-.224.47-1.053.359-.6.762-.067.56-.336.672.246.336v.627l.179-.134-.2.583.022.358-.336.224.179.515.224.224-.2.246-.359-.09.09.784-.336.515-.4-.2-.291.09-.224.246.112.269-.134.314-.448.045-.4.067-.134.448.336.5.695-.364.179.179.2.022.246-.246.291-.112v.246l-.045.6.112.471-.224.6-.336-.09-.381.067.134.269.291-.022.067.179-.336.291-.291.045.022.224.269.314-.09.179-.067.224-.246.179-.157-.067-.022.762-.179.336-.65-.045-.09-.381-.359-.045.2.4.022.246-.269.157-.045.291-.358.314.157.47.291.112.045.291.359.134-.09.694-.538.247-.022.358-.112.336.022.65a1.886,1.886,0,0,1-.314.089c-.067,0-.269-.336-.269-.336l-.426.2-.224.291-.448.179-.56.247-.336.717-.045.784-.112.314-.314.493-.448.022-.448.538-.336.067-.851-.291-.022-.224-.448-.022-.672.179-.359.269-.224.448-.359-.314.291-.426-.381.224-.269.336-.6-.4.269-.179-.358-.4-.067.179-.4-.336-.56-.358-.381-.067.426.336.426.448.179.493-.247.224-.358.112h-.269l-.224-.336-.493.314-.336.672.224.224v.65l-.448.269-.246.314.717.583.269-.381.157.471-.179.358.336.224v.269l.515.448-.2.179.157.224-.112.157-.067.627-.157.314-.09.381.112.269-.134.224-.314-.224-.493.067-.2-.269-.762.695-.314.224.336.358h-.672l-.291-.2-.291-1.7-.224-.157-.2.672-1.165-.022-.963-.6.246-.336-.067-.112.358-.493.067-.2-.381-.022.179-.4-.179-.067-.09.112-.314-.157.045-.269-.112-.515-.157.582-.47.515-.269.269-.2-.314.224-.224-.022-.246-.336.067-.311.493.625.448-.09.157-.381-.2.022.426-.47-.224-.4.784-.291.583-.022.694-.2.134-.694.045-.314.2v.986l-.157,1.143-.358-.179-.179.314-.067.359.246.314.022.47.179.426-.246.314-.2.134-.224.246-.022.359-.47.246.045-.47-.291-.314-.045-.515.314-.112.022-.224-.358-.134-.291-.986-.045-.717.134-.359-.246-.269-.358.291.224.358-.426.022-.022-.359-.4-.022v.358l.224.56-.314.359.336.2-.022,1.075.583,1.434-.045.269-.246.224h-.6l-.045-.65-.4-.941-.314-.067-.4.134-.045.291-.246-.179-.157.314-.269-.246-.112.426,1.031.09.045.291-.045.2.067.336-.246-.09-.112-.314-.448.269-.157-.224-.224.09-.179.269.448.426.336.112v.2l-.358-.134-.246.358h-.269l-.045.359-.246.2-.067-.493.179-.134.09-.6-.045-.448-.739-.336-.157-.6-.112-.829-.336-1.031v-.381l-.179-.807-.022-.493.47-1.546.022-1.187-.627.09-.134.4-.47,2.016-.291-.224-.583.4-.157-.717.246-1.658.336-.358-.4-.291-.314.246-.134.6.112.6-.045.515-.672.269-1.143.56-.022.9h-1.591l.022-.627.269-1.075.045-.807.269-1.031-.112-.269.493-.6-.157-.336-.65-.2-.224.717-.56.672-.157,2.487-.381.381-.067.717-1.389-.179.022-.4-.515.112-2.352-.09-.291-.022v-.493l-.224-.157-.291.134-1.1-1.1.314-.627,1.188.112.56-.448.157-.6-.246-.47-.291.067-.246-.448.246-.448Z" transform="translate(-911.75 -1585.333)"/><g transform="translate(-2322.615 -2862.685)"><path class="c" d="M2542.595,3248.3v3h-2.856v-3h-3.948a1.078,1.078,0,0,1-.9-.35,1.244,1.244,0,0,1-.273-.784,1.389,1.389,0,0,1,.063-.413,1.064,1.064,0,0,1,.2-.371.983.983,0,0,1,.364-.266,1.362,1.362,0,0,1,.546-.1h10.752a1.364,1.364,0,0,1,.546.1.984.984,0,0,1,.364.266,1.08,1.08,0,0,1,.2.371,1.389,1.389,0,0,1,.063.413,1.244,1.244,0,0,1-.273.784,1.078,1.078,0,0,1-.9.35Zm1.61-8.764v-.028a1.263,1.263,0,0,1,.119-.574,1.064,1.064,0,0,1,.315-.385,1.337,1.337,0,0,1,.455-.217,2.049,2.049,0,0,1,.539-.07,1.991,1.991,0,0,1,.525.07,1.337,1.337,0,0,1,.455.217,1.145,1.145,0,0,1,.322.385,1.214,1.214,0,0,1,.126.574v5.544h-9.786a4.146,4.146,0,0,1-1.029-.1,1.222,1.222,0,0,1-.623-.357,1.352,1.352,0,0,1-.3-.665,5.774,5.774,0,0,1-.077-1.029v-3.388a1.263,1.263,0,0,1,.119-.574,1.041,1.041,0,0,1,.322-.385,1.42,1.42,0,0,1,.462-.217,2.044,2.044,0,0,1,.539-.07,1.775,1.775,0,0,1,.518.077,1.478,1.478,0,0,1,.455.231,1.188,1.188,0,0,1,.329.392,1.213,1.213,0,0,1,.126.574Zm0,3.3v-1.19h-6.09v.756a.5.5,0,0,0,.091.322.424.424,0,0,0,.343.112Z"/><path class="c" d="M2549.287,3243.5a2.9,2.9,0,0,0,1.624-1.2,4.515,4.515,0,0,0,.56-2.45v-.252a1.321,1.321,0,0,1,.119-.581,1.144,1.144,0,0,1,.322-.406,1.366,1.366,0,0,1,.462-.238,1.9,1.9,0,0,1,.539-.077,1.507,1.507,0,0,1,.945.343,1.171,1.171,0,0,1,.4.959v.252a8.345,8.345,0,0,1-.084,1.232,4.109,4.109,0,0,1,1.344.406,2.928,2.928,0,0,1,1.015.854,3.87,3.87,0,0,1,.63,1.358,6.447,6.447,0,0,1,.175,1.9h-2.7q.126-2.058-1.162-2.38a4.848,4.848,0,0,1-1.519,1.764,4.306,4.306,0,0,1-1.911.756,1.349,1.349,0,0,1-.518-.014,1.312,1.312,0,0,1-.42-.175,1.188,1.188,0,0,1-.308-.287.932.932,0,0,1-.168-.35,1.191,1.191,0,0,1,.049-.875A1,1,0,0,1,2549.287,3243.5Zm2.408,7.728a3.571,3.571,0,0,1-.973-.112,1.319,1.319,0,0,1-.609-.35,1.339,1.339,0,0,1-.315-.63,4.245,4.245,0,0,1-.091-.952v-1.47a1.256,1.256,0,0,1,.427-1.05,1.593,1.593,0,0,1,1.015-.336,1.509,1.509,0,0,1,.994.336,1.285,1.285,0,0,1,.406,1.05v.994c0,.159.023.257.07.294a.557.557,0,0,0,.308.056h7.336a1.111,1.111,0,0,1,.91.329,1.2,1.2,0,0,1-.007,1.512,1.113,1.113,0,0,1-.9.329Zm6.524-11.76a1.292,1.292,0,0,1,.406-1.036,1.487,1.487,0,0,1,1.925.007,1.288,1.288,0,0,1,.413,1.029v2.114h.434a1.121,1.121,0,0,1,.532.112.953.953,0,0,1,.336.287,1.173,1.173,0,0,1,.182.392,1.659,1.659,0,0,1,0,.854,1.162,1.162,0,0,1-.182.392.956.956,0,0,1-.343.287,1.141,1.141,0,0,1-.525.112h-.434v3.962h-2.744Z"/></g></g></svg>