<svg xmlns="http://www.w3.org/2000/svg" width="52" height="52" viewBox="0 0 52 52"><defs><style>.a{fill:none;}.b{fill:#ccc;opacity:0.5;}.c{fill:#222;}</style></defs><g transform="translate(-292 -356)"><rect class="a" width="52" height="52" transform="translate(292 356)"/><path class="b" d="M2020,1818.719l.224-.336-.112-.364,1.093-.476h1.037l.392-.448.448.308.308-.308V1815.8l.252-.2v-.336h.28v-1.149l.42-.841h.9l.28-.224.589.42h.168l.14-.729.168-.14h.336l.729-.645-.336-.589-.28-.953h-.224l-.5-.364-.168.14-.673-.28-.14-.813.476-.785.617-.224.336.308.757-.869.532.28.252.42.336-.2.757.9.448-.252.252.28.476-.224.532.56.224-.336.5.224.42.617v.617l.729.729v.336l.224.084.589.561.729.112v.448l.5.28.448-.224.841-.561.5-.953.224-.112.2-.645.532-.869v-.729l.252-.28.448-.028-.14-.364.5-.028.561-.308v-.645l-.308-.561.561-.785v-.224l-.448-.392.448-.589.364-.617.617-.5h.5l.729-.5.9.336v-.336h.2v-.813l.448.336,1.065-.561.2.42.645.476v1.542l-.477.14v.533l-.757.645.224.224.056.729.7,1.205.42.112v.392l.589.308.869-.617.42.392,1.037.028.252.28.616-.532v.2l.561-.476.925.532.9.14.14.589-.392.476.056.617.5.869.42.084v.841l-.477.28.336.5.392.28v.813l-.673.589-.7.224.028.981.869,1.149.476.252.42-.112.364,1.093.14.841-.168.392.168.168v.392l.28.364-.42.308.084.364-.308.364.364,1.121,1.99,1.569h.925l.477.42v1.205l-.477.224-.729.14-.365.645h-.252l-.14.561.336.533-.365.645-.308-.168-.588.168-.448.448.532.785.112.448-.42.561.308.953-.14,1.57-.561.336-.056.308.7.785.252-.364.224.168.5-.252.533.14-.084.308-.729.476.533.224.112.476h.364l1.149.645h1.4l.14-.448-.308-.364.308-.42.168.056,1.457-1.177.869-.168,1.009-.673.9-.869.532-.673.42-1.822.673-.112.252-.617.224-.056.14-.785.365-.28v-.673l.56-.561v.645l.533-.364.14.5.588.056.252.336-.14.981.42.2.308,1.121v.252l.477.5-.365.42.056.28-.252.448.561.533-.224.224-.364.084.589.757v.28l-.477.673-.168.364-.364.168-.5.673.2.729-.673.168-.224-.168-.308.5.168.308-.252.561.224.981h-.589l.2.476-.252.392-.084.533-.224.252h-.2l-.084.42-.448.392-.364.869h-.308l-.617.42.028.841.392.5.42,1.065-.168.252.42.168.14.364-.729.168.084.729.28.42-.028.813-.28-.448-.561.224.393.224h-.477l.168.589h1.261l-.617.561-.084.925-.729.729.084.757-.673.308-.364-.2-.673-.028-.14-.336-.2.224-.9-1.149-.561.364-.448-.14-1.093.448-.392-.252-.28-.448v-.476l-.252-.5.112-.308-.393-.28-.364-1.037-.5-.028-.393-.561-.28.112-.084.673-.42.056-.532.869.028.5-.2.5-.981.14-.308-.729-.757.308-.112-.42-.9.392-.2-.308-.729-.252-.224-.645.252-.2.42-.392-.28-.925-.224.168-.308-.168-.224-.533-.224.533h-.729l-.2-.28.14-.392-.448-.532v-1.4l.14-.336-.477-.813.112-.7-.14-.42-1.009-.9-.028-.448.2-.084v-.7l-.476-.336-.14-.673-.2-.112-.589-1.345-.084-.336.308-.476-.168-.5-.476.056.056-.336-.308-1.485-.659-.925-.715-.308.14-.9.575-1.373-.547-.981.28-.561.392-.028-.126-.364v-.561l-.294-.308h-.392l-.42-.589-.589.364.028.308-1.457.056-.252.308-.2,1.261-.5.953-.532.084-.5.589-1.093.056-.561-.14-1.037,1.121-.869.617-.28-.448.168-.42-.2-1.345-.5-.364-.308-.42-1.205-.028-.28-.308h-.448l-.645-.785v-.813l-.476-.645-1.317.028v-.392l-.785-.168-.757-.925-.084-.981.252-.028.729-.9-.448-.729-.645.364-.645.084-.336.28v.308l-.7-.336-.084-.617-.841-.953.533-.392-.14-.729-1.065-.757-.532-.364-.112-.42-.757.056-.252-.364-1.457-.392-1.177-.617Z" transform="translate(-1726 -1445.015)"/><g transform="translate(-2283.115 -2862.603)"><path class="c" d="M2589.565,3244.035v-1.2a1.379,1.379,0,0,1,.385-1.092,1.554,1.554,0,0,1,1.057-.336,1.488,1.488,0,0,1,1.036.343,1.4,1.4,0,0,1,.378,1.085v1.2h2.492v-1.2a1.378,1.378,0,0,1,.385-1.092,1.552,1.552,0,0,1,1.057-.336,1.488,1.488,0,0,1,1.036.343,1.4,1.4,0,0,1,.378,1.085v1.2h.952a1.073,1.073,0,0,1,.91.35,1.239,1.239,0,0,1,.266.77,1.216,1.216,0,0,1-.273.777,1.087,1.087,0,0,1-.9.343h-3.626v2.408h3.948a1.369,1.369,0,0,1,.546.1,1.029,1.029,0,0,1,.364.259,1,1,0,0,1,.2.364,1.384,1.384,0,0,1,.063.413,1.246,1.246,0,0,1-.273.784,1.078,1.078,0,0,1-.9.35h-10.752a1.078,1.078,0,0,1-.9-.35,1.246,1.246,0,0,1-.273-.784,1.384,1.384,0,0,1,.063-.413.991.991,0,0,1,.2-.364,1.028,1.028,0,0,1,.364-.259,1.367,1.367,0,0,1,.546-.1h3.948v-2.408h-3.626a1.087,1.087,0,0,1-.9-.343,1.216,1.216,0,0,1-.273-.777,1.239,1.239,0,0,1,.266-.77,1.071,1.071,0,0,1,.91-.35Zm8.988-5.488a1.281,1.281,0,0,1,.546.1,1.027,1.027,0,0,1,.567.651,1.432,1.432,0,0,1,0,.84,1.01,1.01,0,0,1-.21.378,1.115,1.115,0,0,1-.371.273,1.242,1.242,0,0,1-.532.1h-9.772a1.232,1.232,0,0,1-.539-.1,1.136,1.136,0,0,1-.364-.273,1.01,1.01,0,0,1-.21-.378,1.432,1.432,0,0,1,0-.84,1.051,1.051,0,0,1,.2-.378,1.034,1.034,0,0,1,.364-.273,1.276,1.276,0,0,1,.546-.1Z"/><path class="c" d="M2605.4,3245.659a6.2,6.2,0,0,1-1.442-.161,3.516,3.516,0,0,1-1.176-.5,2.475,2.475,0,0,1-.8-.889,2.741,2.741,0,0,1-.294-1.316v-.882a1.826,1.826,0,0,1,.182-.826.922.922,0,0,1-.98-.952,1.164,1.164,0,0,1,.245-.707.889.889,0,0,1,.763-.329h2.1a1.171,1.171,0,0,1,.378-.91,1.6,1.6,0,0,1,1.022-.28,1.641,1.641,0,0,1,1.022.28,1.145,1.145,0,0,1,.392.91h2.072a.868.868,0,0,1,.763.329,1.208,1.208,0,0,1,.231.707,1.051,1.051,0,0,1-.224.665.885.885,0,0,1-.742.287,1.823,1.823,0,0,1,.2.826v.882a2.739,2.739,0,0,1-.294,1.316,2.474,2.474,0,0,1-.8.889,3.518,3.518,0,0,1-1.176.5A6.2,6.2,0,0,1,2605.4,3245.659Zm-.588,5.614a3.829,3.829,0,0,1-1.267-.189,2.418,2.418,0,0,1-.889-.525,2.079,2.079,0,0,1-.518-.8,2.928,2.928,0,0,1-.168-1.008,2.988,2.988,0,0,1,.168-1.015,2.073,2.073,0,0,1,.518-.8,2.5,2.5,0,0,1,.889-.532,3.722,3.722,0,0,1,1.267-.2h6.034a3.786,3.786,0,0,1,1.253.189,2.419,2.419,0,0,1,.889.525,2.127,2.127,0,0,1,.525.805,2.917,2.917,0,0,1,.175,1.029,2.465,2.465,0,0,1-.7,1.82,2.912,2.912,0,0,1-2.142.7Zm.588-7.672a2.222,2.222,0,0,0,.434-.042.987.987,0,0,0,.364-.147.826.826,0,0,0,.252-.273.845.845,0,0,0,.1-.434v-.8a.847.847,0,0,0-.1-.434.827.827,0,0,0-.252-.273.983.983,0,0,0-.364-.147,2.263,2.263,0,0,0-.868,0,.973.973,0,0,0-.364.147.827.827,0,0,0-.252.273.844.844,0,0,0-.1.434v.8a.843.843,0,0,0,.1.434.826.826,0,0,0,.252.273.977.977,0,0,0,.364.147A2.221,2.221,0,0,0,2605.4,3243.6Zm4.69,5.782a.777.777,0,0,0,.595-.182.652.652,0,0,0,.161-.448.6.6,0,0,0-.161-.434.818.818,0,0,0-.595-.168h-4.522a.815.815,0,0,0-.595.168.6.6,0,0,0-.161.434.647.647,0,0,0,.161.448.775.775,0,0,0,.595.182Zm.6-9.912a1.279,1.279,0,0,1,.413-1.036,1.506,1.506,0,0,1,1.939.007,1.276,1.276,0,0,1,.42,1.029v1.19h.434a1.121,1.121,0,0,1,.532.112,1,1,0,0,1,.336.28,1.094,1.094,0,0,1,.182.385,1.659,1.659,0,0,1,0,.854,1.173,1.173,0,0,1-.182.392.894.894,0,0,1-.343.28,1.2,1.2,0,0,1-.525.1h-.434v2.688h-2.772Z"/></g></g></svg>