<svg xmlns="http://www.w3.org/2000/svg" width="24" height="24" viewBox="0 0 24 24"><defs><style>.a,.b{fill:none;}.b{stroke:#222;stroke-linecap:round;stroke-linejoin:round;}</style></defs><rect class="a" width="24" height="24"/><g transform="translate(3435.182 1582.374)"><path class="b" d="M-3449.839-1581.182l1.33,1.33a.648.648,0,0,1,.069.84l-.862,1.207a.717.717,0,0,0-.052.752,7.9,7.9,0,0,1,.532,1.281.713.713,0,0,0,.564.493l1.464.248h0a.637.637,0,0,1,.538.637v1.885a.654.654,0,0,1-.546.646l-1.464.244a.715.715,0,0,0-.568.5,7.8,7.8,0,0,1-.53,1.28.714.714,0,0,0,.052.748l.863,1.211a.656.656,0,0,1-.071.844l-1.33,1.327a.635.635,0,0,1-.461.193.645.645,0,0,1-.38-.121l-1.206-.862a.714.714,0,0,0-.751-.053,7.8,7.8,0,0,1-1.281.53.716.716,0,0,0-.494.566l-.249,1.464a.652.652,0,0,1-.646.547h-1.881a.653.653,0,0,1-.645-.546l-.245-1.463a.715.715,0,0,0-.491-.568,7.723,7.723,0,0,1-1.24-.51.729.729,0,0,0-.332-.081.724.724,0,0,0-.417.134l-1.227.874a.628.628,0,0,1-.375.12.644.644,0,0,1-.461-.193l-1.329-1.329a.647.647,0,0,1-.072-.839l.857-1.193a.717.717,0,0,0,.051-.759,7.569,7.569,0,0,1-.538-1.274.718.718,0,0,0-.564-.491l-1.483-.254a.653.653,0,0,1-.546-.646v-1.875a.652.652,0,0,1,.547-.646l1.446-.244a.716.716,0,0,0,.568-.5,7.61,7.61,0,0,1,.522-1.282.715.715,0,0,0-.054-.748l-.871-1.224a.654.654,0,0,1,.07-.843l1.332-1.328,0-.005a.634.634,0,0,1,.457-.189.644.644,0,0,1,.379.12l1.2.862a.712.712,0,0,0,.758.05,7.827,7.827,0,0,1,1.274-.537.711.711,0,0,0,.491-.564l.253-1.483a.655.655,0,0,1,.647-.546h1.875a.656.656,0,0,1,.647.547l.244,1.446a.717.717,0,0,0,.5.568,7.653,7.653,0,0,1,1.329.547.716.716,0,0,0,.75-.052l1.214-.865a.631.631,0,0,1,.374-.119.641.641,0,0,1,.462.193" transform="translate(33.073 3.073)"/><path class="b" d="M-3440.713-1561.62a3.715,3.715,0,0,1-3.715,3.715,3.715,3.715,0,0,1-3.715-3.715,3.715,3.715,0,0,1,3.715-3.715A3.715,3.715,0,0,1-3440.713-1561.62Z" transform="translate(21.247 -8.753)"/></g></svg>