<svg xmlns="http://www.w3.org/2000/svg" width="32" height="32" viewBox="0 0 32 32"><defs><style>.a{fill:#fff;stroke:#ccc;}.b,.d{fill:none;}.b{stroke:#222;stroke-linecap:round;stroke-linejoin:round;}.c{stroke:none;}</style></defs><g transform="translate(-208 -168)"><g class="a" transform="translate(208 168)"><circle class="c" cx="16" cy="16" r="16"/><circle class="d" cx="16" cy="16" r="15.5"/></g><g transform="translate(4733.244 5050.214)"><path class="b" d="M-4506.2-4871.546l-.487-1a1.057,1.057,0,0,0-.951-.593h-3.34a1.057,1.057,0,0,0-.951.593l-.487,1a1.058,1.058,0,0,1-.951.594h-2.868a1.058,1.058,0,0,0-1.058,1.058v9.038a1.059,1.059,0,0,0,1.058,1.059h13.853a1.058,1.058,0,0,0,1.058-1.059v-9.038a1.058,1.058,0,0,0-1.058-1.058h-2.868A1.058,1.058,0,0,1-4506.2-4871.546Z"/><circle class="b" cx="3.281" cy="3.281" r="3.281" transform="translate(-4512.588 -4868.729)"/></g></g></svg>