<svg xmlns="http://www.w3.org/2000/svg" width="40" height="40" viewBox="0 0 40 40"><defs><style>.a,.b{fill:none;}.b{stroke:#222;stroke-linecap:round;stroke-linejoin:round;}.c{fill:#222;}</style></defs><rect class="a" width="40" height="40"/><g transform="translate(3772.259 4790.901)"><path class="b" d="M-3734.125-4766.167a13.424,13.424,0,0,1-13.424,13.424,13.424,13.424,0,0,1-13.424-13.424,13.424,13.424,0,0,1,13.424-13.423A13.424,13.424,0,0,1-3734.125-4766.167Z" transform="translate(-4.71 -4.71)"/><path class="c" d="M-3733.647-4754.885v4.519h-2.5v-12.463h4.768a4.9,4.9,0,0,1,3.381,1.1,3.671,3.671,0,0,1,1.233,2.884,3.646,3.646,0,0,1-1.233,2.876,4.932,4.932,0,0,1-3.381,1.087Zm0-1.926h2.268a2.079,2.079,0,0,0,1.583-.569,2.026,2.026,0,0,0,.54-1.451,2.12,2.12,0,0,0-.535-1.485,2.042,2.042,0,0,0-1.588-.587h-2.268Z" transform="translate(-19.854 -14.549)"/></g></svg>