<svg xmlns="http://www.w3.org/2000/svg" width="40" height="40" viewBox="0 0 40 40"><defs><style>.a,.c{fill:none;}.b{fill:#222;}.b,.c{stroke:#222;stroke-linecap:round;stroke-linejoin:round;}</style></defs><rect class="a" width="40" height="40"/><g transform="translate(4105.826 1594.234)"><path class="b" d="M-4074.973-1574.638l-.861,1.674-2.009.323,1.326,1.464-.314,2.082,1.859-1.041,1.859,1.041-.314-2.082,1.325-1.463-2.009-.324Z" transform="translate(-10.858 -5.381)"/><path class="b" d="M-4074.973-1574.638l-.861,1.674-2.009.323,1.326,1.464-.314,2.082,1.859-1.041,1.859,1.041-.314-2.082,1.325-1.463-2.009-.324Z" transform="translate(-2.983 -4.381)"/><path class="b" d="M-4074.973-1574.638l-.861,1.674-2.009.323,1.326,1.464-.314,2.082,1.859-1.041,1.859,1.041-.314-2.082,1.325-1.463-2.009-.324Z" transform="translate(-18.683 -4.381)"/><path class="c" d="M-4075.466-1587.039h-22.445a2.773,2.773,0,0,0-2.773,2.773v15.68a2.773,2.773,0,0,0,2.773,2.773h13.956l3,5.029,2.773-5.029h2.718a2.773,2.773,0,0,0,2.773-2.773v-15.68A2.773,2.773,0,0,0-4075.466-1587.039Z" transform="translate(0.858 0.805)"/></g></svg>